<svg width="176" height="110" viewBox="0 0 176 110" fill="none" xmlns="http://www.w3.org/2000/svg">
<path fill-rule="evenodd" clip-rule="evenodd" d="M80.3311 0.849237C80.2085 0.943666 78.9748 3.32387 77.5896 6.13875L75.0711 11.2568V25.8758V40.495L74.2616 41.2525C73.3836 42.0743 72.861 42.9956 72.6209 44.1445C72.4816 44.8115 72.4288 44.8795 71.803 45.1947L71.134 45.5317L70.6721 45.0647L70.2103 44.5979H65.502H60.7937L60.3969 44.9991C60.1328 45.2662 60 45.5395 60 45.8166C60 46.0454 61.0346 49.9872 62.2991 54.576C64.3203 61.9113 64.6411 62.9566 64.9542 63.2289C65.3098 63.538 65.3183 63.5386 70.2691 63.5386H75.2278L75.6247 63.1374C76.1598 62.5965 76.137 62.2289 75.4239 59.9014C75.1002 58.8446 74.8425 57.9715 74.8513 57.9612C75.0214 57.7643 79.2219 55.2007 79.5832 55.0734C80.0383 54.913 80.5365 54.9657 84.4712 55.5905C91.0909 56.6417 92.0078 56.5362 95.4873 54.3229C96.468 53.6989 99.9769 51.441 103.285 49.305L109.299 45.4215H115.878C122.276 45.4215 122.464 45.4139 122.728 45.147C122.997 44.8755 123 44.6895 123 27.9899V11.1072L120.542 6.13271C119.19 3.39661 117.989 1.05003 117.873 0.917862C117.675 0.691261 116.608 0.677673 99.1083 0.677673C84.4744 0.677673 80.5069 0.713908 80.3311 0.849237ZM98.2888 6.44221V10.5597H92.5862C87.0646 10.5597 86.8751 10.5684 86.6121 10.8342C86.4627 10.9852 86.3405 11.2323 86.3405 11.3832C86.3405 11.5342 86.4627 11.7813 86.6121 11.9322C86.865 12.1879 87.0646 12.2067 89.5312 12.2067H92.1789V15.7066C92.1789 19.0236 92.1931 19.221 92.4504 19.481C92.7146 19.7481 92.903 19.7555 99.3673 19.7555H106.013L106.224 19.4504C106.402 19.1939 106.435 18.594 106.435 15.676V12.2067H113.903H121.371V27.9906V43.7744H113.699H106.028V38.6727C106.028 34.118 106.004 33.5439 105.803 33.3199C105.378 32.8447 104.911 33.0011 104.06 33.9038L103.272 34.7388L102.466 33.9038C101.423 32.8233 101.235 32.8221 100.136 33.8888L99.2915 34.7086L98.4889 33.8888C97.9579 33.3464 97.5775 33.0689 97.3648 33.0689C97.1568 33.0689 96.7452 33.3583 96.1987 33.8888L95.354 34.7086L94.5514 33.8888C93.6561 32.9742 93.1729 32.8323 92.7976 33.374C92.6155 33.6366 92.5862 34.3802 92.5862 38.7268V43.7744H90.1444H87.7026L89.2078 40.7206L90.7129 37.6668L90.6548 36.6213C90.5675 35.0527 89.8404 33.9681 88.445 33.3251C87.6457 32.9569 86.3172 32.9867 85.4555 33.3922C84.7241 33.7366 84.3575 34.1294 82.0419 37.0497C81.2933 37.9937 80.4421 38.9318 80.1502 39.1345C79.5466 39.5537 78.7758 39.7603 77.549 39.8312L76.7004 39.8804V26.0436V12.2067H79.3481C81.8147 12.2067 82.0143 12.1879 82.2672 11.9322C82.5869 11.6092 82.6132 11.2641 82.3464 10.8948C82.1719 10.6531 81.9283 10.622 79.7261 10.5597L77.2981 10.4911L79.2735 6.40872L81.2489 2.32633L89.7689 2.32551L98.2888 2.32468V6.44221ZM118.826 6.37413C119.927 8.60144 120.828 10.4543 120.828 10.4917C120.828 10.5291 116.123 10.5597 110.373 10.5597H99.9181V6.44221V2.32468H108.371H116.824L118.826 6.37413ZM104.806 15.1576V18.1085H99.3071H93.8082V15.1576V12.2067H99.3071H104.806V15.1576ZM80.048 15.6145C79.7554 15.9413 79.7472 17.1143 80.0347 17.5289C80.17 17.7244 80.3869 17.834 80.6379 17.834C81.1785 17.834 81.4526 17.3922 81.4526 16.5208C81.4526 16.0141 81.3833 15.7544 81.2043 15.5907C80.8764 15.2906 80.3278 15.302 80.048 15.6145ZM80.0948 19.0693C79.8336 19.3334 79.8233 19.5267 79.8233 24.1476C79.8233 28.7684 79.8336 28.9618 80.0948 29.2259C80.2442 29.3768 80.4886 29.5004 80.6379 29.5004C80.7873 29.5004 81.0317 29.3768 81.181 29.2259C81.4423 28.9618 81.4526 28.7684 81.4526 24.1476C81.4526 19.5267 81.4423 19.3334 81.181 19.0693C81.0317 18.9183 80.7873 18.7948 80.6379 18.7948C80.4886 18.7948 80.2442 18.9183 80.0948 19.0693ZM88.0729 34.9897C88.6793 35.3633 89.0549 36.0331 89.0555 36.7414C89.0559 37.2155 88.736 37.9724 87.3588 40.7549C86.4254 42.641 85.6616 44.3495 85.6616 44.5518C85.6616 44.754 85.7628 45.0324 85.8863 45.1704C86.1002 45.4094 86.6008 45.4216 96.2393 45.4231L106.367 45.4248L105.756 45.82C99.9101 49.6027 93.6059 53.6177 93.1293 53.8618C91.259 54.8201 90.1716 54.8296 84.517 53.9368C79.0063 53.0667 79.6026 52.9843 76.323 55.0691C75.2565 55.747 74.3625 56.2779 74.3362 56.2486C74.2482 56.1512 71.5176 47.1835 71.5635 47.1431C71.5885 47.1212 71.9555 46.9333 72.3792 46.7256C73.5013 46.1755 74.1207 45.6194 74.1207 45.1619C74.1207 44.3832 74.5421 43.3411 75.1081 42.7205C75.9246 41.8249 76.5143 41.5702 78.0917 41.4317C79.4675 41.3109 80.4222 40.9872 81.3308 40.3332C81.555 40.1717 82.6455 38.9159 83.7541 37.5423C84.8629 36.1686 85.9135 34.9749 86.0892 34.8896C86.6088 34.6371 87.5803 34.6861 88.0729 34.9897ZM98.2316 35.9511C98.6982 36.4041 99.1822 36.7747 99.3071 36.7747C99.432 36.7747 99.9161 36.4041 100.383 35.9511C100.849 35.4982 101.28 35.1276 101.339 35.1276C101.398 35.1276 101.759 35.464 102.142 35.8751C103.052 36.854 103.439 36.9525 103.987 36.346L104.399 35.8899V39.8322V43.7744H99.3071H94.2155V39.8485V35.9227L94.6955 36.3486C94.9594 36.5829 95.271 36.7747 95.3878 36.7747C95.5047 36.7747 95.9761 36.4053 96.4355 35.9538C96.8946 35.5022 97.2959 35.1316 97.3268 35.1303C97.3578 35.1289 97.765 35.4982 98.2316 35.9511ZM71.8026 53.7938C73.0517 57.9079 74.1191 61.4128 74.1743 61.5827L74.2748 61.8916H70.1244C67.8417 61.8916 65.9741 61.863 65.9741 61.828C65.9741 61.793 65.0271 58.3291 63.8696 54.1303C62.7121 49.9315 61.7651 46.4386 61.7651 46.3685C61.7651 46.2918 63.3181 46.2553 65.6483 46.2772L69.5315 46.3136L71.8026 53.7938ZM67.9046 57.316C66.6959 57.9183 66.3497 59.6061 67.2086 60.7097C68.154 61.9248 70.1772 61.7388 70.8663 60.3734C71.4179 59.2804 71.0997 58.1093 70.058 57.3999C69.5065 57.0241 68.5642 56.9875 67.9046 57.316ZM69.367 58.9389C69.4632 59.056 69.4981 59.2901 69.449 59.4879C69.3818 59.7587 69.2773 59.8328 68.9634 59.8328C68.4687 59.8328 68.1983 59.4245 68.4181 59.0093C68.5893 58.6858 69.1266 58.646 69.367 58.9389Z" fill="white"/>
<path d="M7.73286 80.2H10.5049V90H7.73286V80.2ZM3.95286 90H1.18086V80.2H3.95286V90ZM7.92886 86.178H3.75686V83.882H7.92886V86.178ZM16.9505 90V88.586L16.7685 88.236V85.632C16.7685 85.212 16.6379 84.89 16.3765 84.666C16.1245 84.4327 15.7185 84.316 15.1585 84.316C14.7945 84.316 14.4259 84.3767 14.0525 84.498C13.6792 84.61 13.3619 84.7687 13.1005 84.974L12.2045 83.168C12.6339 82.888 13.1472 82.6733 13.7445 82.524C14.3512 82.3653 14.9532 82.286 15.5505 82.286C16.7825 82.286 17.7345 82.5707 18.4065 83.14C19.0879 83.7 19.4285 84.582 19.4285 85.786V90H16.9505ZM14.7105 90.126C14.1039 90.126 13.5905 90.0233 13.1705 89.818C12.7505 89.6127 12.4285 89.3327 12.2045 88.978C11.9899 88.6233 11.8825 88.2267 11.8825 87.788C11.8825 87.3213 11.9992 86.92 12.2325 86.584C12.4752 86.2387 12.8439 85.9773 13.3385 85.8C13.8332 85.6133 14.4725 85.52 15.2565 85.52H17.0485V86.906H15.6205C15.1912 86.906 14.8879 86.976 14.7105 87.116C14.5425 87.256 14.4585 87.4427 14.4585 87.676C14.4585 87.9093 14.5472 88.096 14.7245 88.236C14.9019 88.376 15.1445 88.446 15.4525 88.446C15.7419 88.446 16.0032 88.376 16.2365 88.236C16.4792 88.0867 16.6565 87.8627 16.7685 87.564L17.1325 88.544C16.9925 89.0667 16.7172 89.4633 16.3065 89.734C15.9052 89.9953 15.3732 90.126 14.7105 90.126ZM26.2928 88.838V84.526H24.2628L24.2348 85.254C24.2161 85.618 24.1928 85.9633 24.1648 86.29C24.1461 86.6073 24.0995 86.8967 24.0248 87.158C23.9501 87.4193 23.8428 87.6433 23.7028 87.83C23.5628 88.0073 23.3761 88.138 23.1428 88.222L20.5388 87.872C20.7908 87.872 20.9961 87.802 21.1548 87.662C21.3228 87.5127 21.4535 87.3073 21.5468 87.046C21.6401 86.7847 21.7055 86.486 21.7428 86.15C21.7895 85.8047 21.8221 85.4407 21.8408 85.058L21.9388 82.412H28.9528V88.838H26.2928ZM20.2868 91.568V87.872H30.0028V91.568H27.5388V90H22.7648V91.568H20.2868ZM35.052 90.126C34.156 90.126 33.372 89.958 32.7 89.622C32.0373 89.2767 31.5193 88.81 31.146 88.222C30.782 87.6247 30.6 86.948 30.6 86.192C30.6 85.436 30.7773 84.764 31.132 84.176C31.496 83.5787 31.9953 83.1167 32.63 82.79C33.2647 82.454 33.9787 82.286 34.772 82.286C35.5187 82.286 36.2 82.44 36.816 82.748C37.432 83.0467 37.922 83.49 38.286 84.078C38.65 84.666 38.832 85.38 38.832 86.22C38.832 86.3133 38.8273 86.4207 38.818 86.542C38.8087 86.6633 38.7993 86.7753 38.79 86.878H32.784V85.478H37.376L36.368 85.87C36.3773 85.5247 36.312 85.226 36.172 84.974C36.0413 84.722 35.8547 84.526 35.612 84.386C35.3787 84.246 35.1033 84.176 34.786 84.176C34.4687 84.176 34.1887 84.246 33.946 84.386C33.7127 84.526 33.5307 84.7267 33.4 84.988C33.2693 85.24 33.204 85.5387 33.204 85.884V86.29C33.204 86.6633 33.2787 86.9853 33.428 87.256C33.5867 87.5267 33.8107 87.7367 34.1 87.886C34.3893 88.026 34.7347 88.096 35.136 88.096C35.5093 88.096 35.8267 88.0447 36.088 87.942C36.3587 87.83 36.6247 87.662 36.886 87.438L38.286 88.894C37.922 89.2953 37.474 89.6033 36.942 89.818C36.41 90.0233 35.78 90.126 35.052 90.126ZM36.2 81.516C35.892 81.516 35.6307 81.418 35.416 81.222C35.2013 81.0167 35.094 80.7507 35.094 80.424C35.094 80.0973 35.2013 79.8313 35.416 79.626C35.6307 79.4207 35.892 79.318 36.2 79.318C36.508 79.318 36.7693 79.4207 36.984 79.626C37.1987 79.8313 37.306 80.0973 37.306 80.424C37.306 80.7507 37.1987 81.0167 36.984 81.222C36.7693 81.418 36.508 81.516 36.2 81.516ZM33.232 81.516C32.924 81.516 32.6627 81.418 32.448 81.222C32.2333 81.0167 32.126 80.7507 32.126 80.424C32.126 80.0973 32.2333 79.8313 32.448 79.626C32.6627 79.4207 32.924 79.318 33.232 79.318C33.54 79.318 33.8013 79.4207 34.016 79.626C34.2307 79.8313 34.338 80.0973 34.338 80.424C34.338 80.7507 34.2307 81.0167 34.016 81.222C33.8013 81.418 33.54 81.516 33.232 81.516ZM49.2587 90L47.4527 86.458L49.5947 85.198L52.4087 90H49.2587ZM46.3187 87.298V85.212H49.0487V87.298H46.3187ZM49.8747 86.5L47.3687 86.248L49.4267 82.412H52.2407L49.8747 86.5ZM42.3147 90H39.1647L41.9647 85.198L44.1067 86.458L42.3147 90ZM47.1027 90H44.4847V82.412H47.1027V90ZM45.2547 87.298H42.5247V85.212H45.2547V87.298ZM41.6987 86.5L39.3327 82.412H42.1467L44.1767 86.248L41.6987 86.5ZM53.3355 90V82.412H55.9815V85.226H58.7115V82.412H61.3715V90H58.7115V87.34H55.9815V90H53.3355ZM67.6595 90V88.586L67.4775 88.236V85.632C67.4775 85.212 67.3469 84.89 67.0855 84.666C66.8335 84.4327 66.4275 84.316 65.8675 84.316C65.5035 84.316 65.1349 84.3767 64.7615 84.498C64.3882 84.61 64.0709 84.7687 63.8095 84.974L62.9135 83.168C63.3429 82.888 63.8562 82.6733 64.4535 82.524C65.0602 82.3653 65.6622 82.286 66.2595 82.286C67.4915 82.286 68.4435 82.5707 69.1155 83.14C69.7969 83.7 70.1375 84.582 70.1375 85.786V90H67.6595ZM65.4195 90.126C64.8129 90.126 64.2995 90.0233 63.8795 89.818C63.4595 89.6127 63.1375 89.3327 62.9135 88.978C62.6989 88.6233 62.5915 88.2267 62.5915 87.788C62.5915 87.3213 62.7082 86.92 62.9415 86.584C63.1842 86.2387 63.5529 85.9773 64.0475 85.8C64.5422 85.6133 65.1815 85.52 65.9655 85.52H67.7575V86.906H66.3295C65.9002 86.906 65.5969 86.976 65.4195 87.116C65.2515 87.256 65.1675 87.4427 65.1675 87.676C65.1675 87.9093 65.2562 88.096 65.4335 88.236C65.6109 88.376 65.8535 88.446 66.1615 88.446C66.4509 88.446 66.7122 88.376 66.9455 88.236C67.1882 88.0867 67.3655 87.8627 67.4775 87.564L67.8415 88.544C67.7015 89.0667 67.4262 89.4633 67.0155 89.734C66.6142 89.9953 66.0822 90.126 65.4195 90.126ZM76.5118 90V87.536L76.8618 87.942H74.9298C73.8005 87.942 72.9091 87.7133 72.2558 87.256C71.6025 86.7893 71.2758 86.1267 71.2758 85.268C71.2758 84.3533 71.6165 83.6487 72.2978 83.154C72.9791 82.6593 73.8985 82.412 75.0558 82.412H78.8778V90H76.5118ZM71.1498 90L73.1518 87.116H75.8398L73.9638 90H71.1498ZM76.5118 86.738V83.854L76.8618 84.512H75.1118C74.7571 84.512 74.4818 84.582 74.2858 84.722C74.0898 84.8527 73.9918 85.0673 73.9918 85.366C73.9918 85.9447 74.3605 86.234 75.0978 86.234H76.8618L76.5118 86.738ZM84.7398 90V82.412H87.3858V86.388L90.5638 82.412H93.0138V90H90.3538V86.01L87.2038 90H84.7398ZM102.824 90.196C102.208 90.196 101.634 90.1073 101.102 89.93C100.58 89.7527 100.122 89.4727 99.7305 89.09C99.3478 88.7073 99.0445 88.208 98.8205 87.592C98.6058 86.976 98.4985 86.2293 98.4985 85.352C98.4985 84.764 98.5498 84.2227 98.6525 83.728C98.7551 83.2333 98.9091 82.7807 99.1145 82.37C99.3291 81.95 99.5998 81.5813 99.9265 81.264C100.262 80.9467 100.654 80.6807 101.102 80.466C101.55 80.2513 102.064 80.088 102.642 79.976L106.324 79.276L106.688 81.502L103.496 82.104C103.3 82.1413 103.086 82.188 102.852 82.244C102.628 82.3 102.409 82.384 102.194 82.496C101.98 82.5987 101.779 82.7433 101.592 82.93C101.415 83.1167 101.27 83.364 101.158 83.672C101.056 83.9707 101.004 84.344 101.004 84.792C101.004 84.9227 101.009 85.03 101.018 85.114C101.037 85.1887 101.051 85.2773 101.06 85.38C101.07 85.4733 101.074 85.618 101.074 85.814L100.332 85.128C100.556 84.736 100.822 84.4047 101.13 84.134C101.448 83.8633 101.812 83.6533 102.222 83.504C102.633 83.3547 103.09 83.28 103.594 83.28C104.332 83.28 104.966 83.4247 105.498 83.714C106.03 83.994 106.436 84.386 106.716 84.89C107.006 85.3847 107.15 85.9493 107.15 86.584C107.15 87.3307 106.964 87.9747 106.59 88.516C106.217 89.048 105.704 89.4633 105.05 89.762C104.406 90.0513 103.664 90.196 102.824 90.196ZM102.894 88.18C103.202 88.18 103.468 88.1147 103.692 87.984C103.926 87.8533 104.108 87.6713 104.238 87.438C104.369 87.2047 104.434 86.9433 104.434 86.654C104.434 86.3553 104.369 86.0987 104.238 85.884C104.108 85.6693 103.926 85.5013 103.692 85.38C103.468 85.2587 103.202 85.198 102.894 85.198C102.586 85.198 102.311 85.2587 102.068 85.38C101.835 85.5013 101.653 85.6647 101.522 85.87C101.392 86.0753 101.326 86.3227 101.326 86.612C101.326 86.9013 101.392 87.1673 101.522 87.41C101.653 87.6527 101.835 87.844 102.068 87.984C102.311 88.1147 102.586 88.18 102.894 88.18ZM112.284 90.126C111.388 90.126 110.604 89.958 109.932 89.622C109.27 89.2767 108.752 88.81 108.378 88.222C108.014 87.6247 107.832 86.948 107.832 86.192C107.832 85.436 108.01 84.764 108.364 84.176C108.728 83.5787 109.228 83.1167 109.862 82.79C110.497 82.454 111.211 82.286 112.004 82.286C112.751 82.286 113.432 82.44 114.048 82.748C114.664 83.0467 115.154 83.49 115.518 84.078C115.882 84.666 116.064 85.38 116.064 86.22C116.064 86.3133 116.06 86.4207 116.05 86.542C116.041 86.6633 116.032 86.7753 116.022 86.878H110.016V85.478H114.608L113.6 85.87C113.61 85.5247 113.544 85.226 113.404 84.974C113.274 84.722 113.087 84.526 112.844 84.386C112.611 84.246 112.336 84.176 112.018 84.176C111.701 84.176 111.421 84.246 111.178 84.386C110.945 84.526 110.763 84.7267 110.632 84.988C110.502 85.24 110.436 85.5387 110.436 85.884V86.29C110.436 86.6633 110.511 86.9853 110.66 87.256C110.819 87.5267 111.043 87.7367 111.332 87.886C111.622 88.026 111.967 88.096 112.368 88.096C112.742 88.096 113.059 88.0447 113.32 87.942C113.591 87.83 113.857 87.662 114.118 87.438L115.518 88.894C115.154 89.2953 114.706 89.6033 114.174 89.818C113.642 90.0233 113.012 90.126 112.284 90.126ZM122.244 90.126C121.6 90.126 121.05 89.986 120.592 89.706C120.135 89.4167 119.785 88.9873 119.542 88.418C119.309 87.8393 119.192 87.102 119.192 86.206C119.192 85.3007 119.304 84.5633 119.528 83.994C119.752 83.4153 120.088 82.986 120.536 82.706C120.994 82.426 121.563 82.286 122.244 82.286C122.935 82.286 123.56 82.4493 124.12 82.776C124.69 83.0933 125.138 83.546 125.464 84.134C125.8 84.7127 125.968 85.4033 125.968 86.206C125.968 87.0087 125.8 87.704 125.464 88.292C125.138 88.88 124.69 89.3327 124.12 89.65C123.56 89.9673 122.935 90.126 122.244 90.126ZM117.47 92.716V82.412H120.004V83.7L119.99 86.206L120.13 88.726V92.716H117.47ZM121.684 88.012C121.983 88.012 122.249 87.942 122.482 87.802C122.725 87.662 122.916 87.4567 123.056 87.186C123.206 86.9153 123.28 86.5887 123.28 86.206C123.28 85.8233 123.206 85.4967 123.056 85.226C122.916 84.9553 122.725 84.75 122.482 84.61C122.249 84.47 121.983 84.4 121.684 84.4C121.386 84.4 121.115 84.47 120.872 84.61C120.639 84.75 120.448 84.9553 120.298 85.226C120.158 85.4967 120.088 85.8233 120.088 86.206C120.088 86.5887 120.158 86.9153 120.298 87.186C120.448 87.4567 120.639 87.662 120.872 87.802C121.115 87.942 121.386 88.012 121.684 88.012ZM131.152 90.126C130.256 90.126 129.472 89.958 128.8 89.622C128.137 89.2767 127.619 88.81 127.246 88.222C126.882 87.6247 126.7 86.948 126.7 86.192C126.7 85.436 126.877 84.764 127.232 84.176C127.596 83.5787 128.095 83.1167 128.73 82.79C129.364 82.454 130.078 82.286 130.872 82.286C131.618 82.286 132.3 82.44 132.916 82.748C133.532 83.0467 134.022 83.49 134.386 84.078C134.75 84.666 134.932 85.38 134.932 86.22C134.932 86.3133 134.927 86.4207 134.918 86.542C134.908 86.6633 134.899 86.7753 134.89 86.878H128.884V85.478H133.476L132.468 85.87C132.477 85.5247 132.412 85.226 132.272 84.974C132.141 84.722 131.954 84.526 131.712 84.386C131.478 84.246 131.203 84.176 130.886 84.176C130.568 84.176 130.288 84.246 130.046 84.386C129.812 84.526 129.63 84.7267 129.5 84.988C129.369 85.24 129.304 85.5387 129.304 85.884V86.29C129.304 86.6633 129.378 86.9853 129.528 87.256C129.686 87.5267 129.91 87.7367 130.2 87.886C130.489 88.026 130.834 88.096 131.236 88.096C131.609 88.096 131.926 88.0447 132.188 87.942C132.458 87.83 132.724 87.662 132.986 87.438L134.386 88.894C134.022 89.2953 133.574 89.6033 133.042 89.818C132.51 90.0233 131.88 90.126 131.152 90.126ZM145.358 90L143.552 86.458L145.694 85.198L148.508 90H145.358ZM142.418 87.298V85.212H145.148V87.298H142.418ZM145.974 86.5L143.468 86.248L145.526 82.412H148.34L145.974 86.5ZM138.414 90H135.264L138.064 85.198L140.206 86.458L138.414 90ZM143.202 90H140.584V82.412H143.202V90ZM141.354 87.298H138.624V85.212H141.354V87.298ZM137.798 86.5L135.432 82.412H138.246L140.276 86.248L137.798 86.5ZM149.435 90V82.412H152.081V85.226H154.811V82.412H157.471V90H154.811V87.34H152.081V90H149.435ZM163.759 90V88.586L163.577 88.236V85.632C163.577 85.212 163.446 84.89 163.185 84.666C162.933 84.4327 162.527 84.316 161.967 84.316C161.603 84.316 161.234 84.3767 160.861 84.498C160.488 84.61 160.17 84.7687 159.909 84.974L159.013 83.168C159.442 82.888 159.956 82.6733 160.553 82.524C161.16 82.3653 161.762 82.286 162.359 82.286C163.591 82.286 164.543 82.5707 165.215 83.14C165.896 83.7 166.237 84.582 166.237 85.786V90H163.759ZM161.519 90.126C160.912 90.126 160.399 90.0233 159.979 89.818C159.559 89.6127 159.237 89.3327 159.013 88.978C158.798 88.6233 158.691 88.2267 158.691 87.788C158.691 87.3213 158.808 86.92 159.041 86.584C159.284 86.2387 159.652 85.9773 160.147 85.8C160.642 85.6133 161.281 85.52 162.065 85.52H163.857V86.906H162.429C162 86.906 161.696 86.976 161.519 87.116C161.351 87.256 161.267 87.4427 161.267 87.676C161.267 87.9093 161.356 88.096 161.533 88.236C161.71 88.376 161.953 88.446 162.261 88.446C162.55 88.446 162.812 88.376 163.045 88.236C163.288 88.0867 163.465 87.8627 163.577 87.564L163.941 88.544C163.801 89.0667 163.526 89.4633 163.115 89.734C162.714 89.9953 162.182 90.126 161.519 90.126ZM172.611 90V87.536L172.961 87.942H171.029C169.9 87.942 169.009 87.7133 168.355 87.256C167.702 86.7893 167.375 86.1267 167.375 85.268C167.375 84.3533 167.716 83.6487 168.397 83.154C169.079 82.6593 169.998 82.412 171.155 82.412H174.977V90H172.611ZM167.249 90L169.251 87.116H171.939L170.063 90H167.249ZM172.611 86.738V83.854L172.961 84.512H171.211C170.857 84.512 170.581 84.582 170.385 84.722C170.189 84.8527 170.091 85.0673 170.091 85.366C170.091 85.9447 170.46 86.234 171.197 86.234H172.961L172.611 86.738ZM58.7567 105.838V101.526H56.7267L56.6987 102.254C56.68 102.618 56.6567 102.963 56.6287 103.29C56.61 103.607 56.5633 103.897 56.4887 104.158C56.414 104.419 56.3067 104.643 56.1667 104.83C56.0267 105.007 55.84 105.138 55.6067 105.222L53.0027 104.872C53.2547 104.872 53.46 104.802 53.6187 104.662C53.7867 104.513 53.9173 104.307 54.0107 104.046C54.104 103.785 54.1693 103.486 54.2067 103.15C54.2533 102.805 54.286 102.441 54.3047 102.058L54.4027 99.412H61.4167V105.838H58.7567ZM52.7507 108.568V104.872H62.4667V108.568H60.0027V107H55.2287V108.568H52.7507ZM67.3479 107.126C66.5172 107.126 65.7799 106.958 65.1359 106.622C64.4919 106.286 63.9832 105.824 63.6099 105.236C63.2459 104.639 63.0639 103.957 63.0639 103.192C63.0639 102.427 63.2459 101.75 63.6099 101.162C63.9832 100.574 64.4919 100.117 65.1359 99.79C65.7799 99.454 66.5172 99.286 67.3479 99.286C68.1785 99.286 68.9159 99.454 69.5599 99.79C70.2132 100.117 70.7219 100.574 71.0859 101.162C71.4499 101.75 71.6319 102.427 71.6319 103.192C71.6319 103.957 71.4499 104.639 71.0859 105.236C70.7219 105.824 70.2132 106.286 69.5599 106.622C68.9159 106.958 68.1785 107.126 67.3479 107.126ZM67.3479 105.012C67.6559 105.012 67.9265 104.942 68.1599 104.802C68.4025 104.662 68.5939 104.457 68.7339 104.186C68.8739 103.906 68.9439 103.575 68.9439 103.192C68.9439 102.809 68.8739 102.487 68.7339 102.226C68.5939 101.955 68.4025 101.75 68.1599 101.61C67.9265 101.47 67.6559 101.4 67.3479 101.4C67.0492 101.4 66.7785 101.47 66.5359 101.61C66.3025 101.75 66.1112 101.955 65.9619 102.226C65.8219 102.487 65.7519 102.809 65.7519 103.192C65.7519 103.575 65.8219 103.906 65.9619 104.186C66.1112 104.457 66.3025 104.662 66.5359 104.802C66.7785 104.942 67.0492 105.012 67.3479 105.012ZM76.6874 107.126C75.8474 107.126 75.0961 106.958 74.4334 106.622C73.7801 106.286 73.2667 105.824 72.8934 105.236C72.5201 104.639 72.3334 103.957 72.3334 103.192C72.3334 102.427 72.5201 101.75 72.8934 101.162C73.2667 100.574 73.7801 100.117 74.4334 99.79C75.0961 99.454 75.8474 99.286 76.6874 99.286C77.5461 99.286 78.2881 99.468 78.9134 99.832C79.5387 100.196 79.9821 100.709 80.2434 101.372L78.1854 102.422C78.0081 102.067 77.7887 101.811 77.5274 101.652C77.2661 101.484 76.9814 101.4 76.6734 101.4C76.3654 101.4 76.0854 101.47 75.8334 101.61C75.5814 101.75 75.3807 101.955 75.2314 102.226C75.0914 102.487 75.0214 102.809 75.0214 103.192C75.0214 103.584 75.0914 103.915 75.2314 104.186C75.3807 104.457 75.5814 104.662 75.8334 104.802C76.0854 104.942 76.3654 105.012 76.6734 105.012C76.9814 105.012 77.2661 104.933 77.5274 104.774C77.7887 104.606 78.0081 104.345 78.1854 103.99L80.2434 105.04C79.9821 105.703 79.5387 106.216 78.9134 106.58C78.2881 106.944 77.5461 107.126 76.6874 107.126ZM83.0773 107V100.938L83.6513 101.526H80.6273V99.412H88.1593V101.526H85.1353L85.7233 100.938V107H83.0773ZM93.6839 107V105.586L93.5019 105.236V102.632C93.5019 102.212 93.3713 101.89 93.1099 101.666C92.8579 101.433 92.4519 101.316 91.8919 101.316C91.5279 101.316 91.1593 101.377 90.7859 101.498C90.4126 101.61 90.0953 101.769 89.8339 101.974L88.9379 100.168C89.3673 99.888 89.8806 99.6733 90.4779 99.524C91.0846 99.3653 91.6866 99.286 92.2839 99.286C93.5159 99.286 94.4679 99.5707 95.1399 100.14C95.8213 100.7 96.1619 101.582 96.1619 102.786V107H93.6839ZM91.4439 107.126C90.8373 107.126 90.3239 107.023 89.9039 106.818C89.4839 106.613 89.1619 106.333 88.9379 105.978C88.7233 105.623 88.6159 105.227 88.6159 104.788C88.6159 104.321 88.7326 103.92 88.9659 103.584C89.2086 103.239 89.5773 102.977 90.0719 102.8C90.5666 102.613 91.2059 102.52 91.9899 102.52H93.7819V103.906H92.3539C91.9246 103.906 91.6213 103.976 91.4439 104.116C91.2759 104.256 91.1919 104.443 91.1919 104.676C91.1919 104.909 91.2806 105.096 91.4579 105.236C91.6353 105.376 91.8779 105.446 92.1859 105.446C92.4753 105.446 92.7366 105.376 92.9699 105.236C93.2126 105.087 93.3899 104.863 93.5019 104.564L93.8659 105.544C93.7259 106.067 93.4506 106.463 93.0399 106.734C92.6386 106.995 92.1066 107.126 91.4439 107.126ZM97.7622 107V99.412H101.836C102.816 99.412 103.582 99.5847 104.132 99.93C104.683 100.266 104.958 100.751 104.958 101.386C104.958 101.993 104.702 102.478 104.188 102.842C103.684 103.197 103.003 103.374 102.144 103.374L102.382 102.814C103.306 102.814 104.002 102.987 104.468 103.332C104.944 103.668 105.182 104.163 105.182 104.816C105.182 105.488 104.921 106.02 104.398 106.412C103.885 106.804 103.096 107 102.032 107H97.7622ZM100.142 105.278H101.794C102.121 105.278 102.364 105.222 102.522 105.11C102.681 104.989 102.76 104.811 102.76 104.578C102.76 104.335 102.681 104.158 102.522 104.046C102.373 103.934 102.14 103.878 101.822 103.878H100.142V105.278ZM100.142 102.464H101.598C101.916 102.464 102.149 102.408 102.298 102.296C102.448 102.175 102.522 102.002 102.522 101.778C102.522 101.554 102.448 101.391 102.298 101.288C102.149 101.176 101.916 101.12 101.598 101.12H100.142V102.464ZM111.846 107L109.536 103.458L111.678 102.198L114.982 107H111.846ZM106.526 107V99.412H109.186V107H106.526ZM108.402 104.298V102.212H111.146V104.298H108.402ZM111.944 103.5L109.452 103.248L112 99.412H114.814L111.944 103.5ZM120.221 107V105.586L120.039 105.236V102.632C120.039 102.212 119.908 101.89 119.647 101.666C119.395 101.433 118.989 101.316 118.429 101.316C118.065 101.316 117.696 101.377 117.323 101.498C116.95 101.61 116.632 101.769 116.371 101.974L115.475 100.168C115.904 99.888 116.418 99.6733 117.015 99.524C117.622 99.3653 118.224 99.286 118.821 99.286C120.053 99.286 121.005 99.5707 121.677 100.14C122.358 100.7 122.699 101.582 122.699 102.786V107H120.221ZM117.981 107.126C117.374 107.126 116.861 107.023 116.441 106.818C116.021 106.613 115.699 106.333 115.475 105.978C115.26 105.623 115.153 105.227 115.153 104.788C115.153 104.321 115.27 103.92 115.503 103.584C115.746 103.239 116.114 102.977 116.609 102.8C117.104 102.613 117.743 102.52 118.527 102.52H120.319V103.906H118.891C118.462 103.906 118.158 103.976 117.981 104.116C117.813 104.256 117.729 104.443 117.729 104.676C117.729 104.909 117.818 105.096 117.995 105.236C118.172 105.376 118.415 105.446 118.723 105.446C119.012 105.446 119.274 105.376 119.507 105.236C119.75 105.087 119.927 104.863 120.039 104.564L120.403 105.544C120.263 106.067 119.988 106.463 119.577 106.734C119.176 106.995 118.644 107.126 117.981 107.126Z" fill="white"/>
</svg>
