<svg width="176" height="91" viewBox="0 0 176 91" fill="none" xmlns="http://www.w3.org/2000/svg">
<path d="M16.1228 88.196C15.4508 88.196 14.7741 88.112 14.0928 87.944C13.4115 87.776 12.8235 87.538 12.3288 87.23L13.3228 85.144C13.7241 85.4053 14.1581 85.606 14.6248 85.746C15.1008 85.886 15.5721 85.956 16.0388 85.956C16.5055 85.956 16.8835 85.8673 17.1728 85.69C17.4621 85.5033 17.6068 85.2467 17.6068 84.92C17.6068 84.724 17.5508 84.5513 17.4388 84.402C17.3268 84.2433 17.1355 84.1267 16.8648 84.052C16.5941 83.968 16.2068 83.926 15.7028 83.926H13.0428L13.5328 78.2H19.7768V80.342H14.5128L15.9268 79.124L15.6048 82.988L14.1908 81.77H16.3608C17.3315 81.77 18.1108 81.91 18.6988 82.19C19.2868 82.4607 19.7161 82.8293 19.9868 83.296C20.2575 83.7533 20.3928 84.2713 20.3928 84.85C20.3928 85.4287 20.2388 85.9747 19.9308 86.488C19.6321 86.992 19.1701 87.4027 18.5448 87.72C17.9195 88.0373 17.1121 88.196 16.1228 88.196ZM24.9209 88L25.0329 85.83C25.0983 85.8393 25.1589 85.8487 25.2149 85.858C25.2709 85.858 25.3223 85.858 25.3689 85.858C25.6023 85.858 25.7843 85.802 25.9149 85.69C26.0549 85.5687 26.1576 85.4053 26.2229 85.2C26.2976 84.9947 26.3489 84.7567 26.3769 84.486C26.4143 84.206 26.4376 83.9027 26.4469 83.576L26.5589 80.412H33.4189V88H30.7589V81.924L31.3469 82.526H28.3089L28.8689 81.896L28.7849 83.688C28.7569 84.3693 28.6963 84.99 28.6029 85.55C28.5189 86.1007 28.3836 86.572 28.1969 86.964C28.0103 87.356 27.7536 87.6593 27.4269 87.874C27.1096 88.0793 26.7036 88.182 26.2089 88.182C26.0316 88.182 25.8309 88.1633 25.6069 88.126C25.3923 88.098 25.1636 88.056 24.9209 88ZM39.1125 88.126C38.2165 88.126 37.4325 87.958 36.7605 87.622C36.0979 87.2767 35.5799 86.81 35.2065 86.222C34.8425 85.6247 34.6605 84.948 34.6605 84.192C34.6605 83.436 34.8379 82.764 35.1925 82.176C35.5565 81.5787 36.0559 81.1167 36.6905 80.79C37.3252 80.454 38.0392 80.286 38.8325 80.286C39.5792 80.286 40.2605 80.44 40.8765 80.748C41.4925 81.0467 41.9825 81.49 42.3465 82.078C42.7105 82.666 42.8925 83.38 42.8925 84.22C42.8925 84.3133 42.8879 84.4207 42.8785 84.542C42.8692 84.6633 42.8599 84.7753 42.8505 84.878H36.8445V83.478H41.4365L40.4285 83.87C40.4379 83.5247 40.3725 83.226 40.2325 82.974C40.1019 82.722 39.9152 82.526 39.6725 82.386C39.4392 82.246 39.1639 82.176 38.8465 82.176C38.5292 82.176 38.2492 82.246 38.0065 82.386C37.7732 82.526 37.5912 82.7267 37.4605 82.988C37.3299 83.24 37.2645 83.5387 37.2645 83.884V84.29C37.2645 84.6633 37.3392 84.9853 37.4885 85.256C37.6472 85.5267 37.8712 85.7367 38.1605 85.886C38.4499 86.026 38.7952 86.096 39.1965 86.096C39.5699 86.096 39.8872 86.0447 40.1485 85.942C40.4192 85.83 40.6852 85.662 40.9465 85.438L42.3465 86.894C41.9825 87.2953 41.5345 87.6033 41.0025 87.818C40.4705 88.0233 39.8405 88.126 39.1125 88.126ZM45.7463 88V81.938L46.3203 82.526H43.2963V80.412H50.8283V82.526H47.8043L48.3923 81.938V88H45.7463ZM59.6711 88.126C58.8404 88.126 58.1031 87.958 57.4591 87.622C56.8151 87.286 56.3064 86.824 55.9331 86.236C55.5691 85.6387 55.3871 84.9573 55.3871 84.192C55.3871 83.4267 55.5691 82.75 55.9331 82.162C56.3064 81.574 56.8151 81.1167 57.4591 80.79C58.1031 80.454 58.8404 80.286 59.6711 80.286C60.5018 80.286 61.2391 80.454 61.8831 80.79C62.5364 81.1167 63.0451 81.574 63.4091 82.162C63.7731 82.75 63.9551 83.4267 63.9551 84.192C63.9551 84.9573 63.7731 85.6387 63.4091 86.236C63.0451 86.824 62.5364 87.286 61.8831 87.622C61.2391 87.958 60.5018 88.126 59.6711 88.126ZM59.6711 86.012C59.9791 86.012 60.2498 85.942 60.4831 85.802C60.7258 85.662 60.9171 85.4567 61.0571 85.186C61.1971 84.906 61.2671 84.5747 61.2671 84.192C61.2671 83.8093 61.1971 83.4873 61.0571 83.226C60.9171 82.9553 60.7258 82.75 60.4831 82.61C60.2498 82.47 59.9791 82.4 59.6711 82.4C59.3724 82.4 59.1018 82.47 58.8591 82.61C58.6258 82.75 58.4344 82.9553 58.2851 83.226C58.1451 83.4873 58.0751 83.8093 58.0751 84.192C58.0751 84.5747 58.1451 84.906 58.2851 85.186C58.4344 85.4567 58.6258 85.662 58.8591 85.802C59.1018 85.942 59.3724 86.012 59.6711 86.012ZM65.2026 88V80.412H73.0426V88H70.3966V81.952L70.9846 82.526H67.2746L67.8486 81.952V88H65.2026ZM82.849 88V80.412H85.495V88H82.849ZM79.195 82.764C80.203 82.7733 80.9543 82.9973 81.449 83.436C81.953 83.8747 82.205 84.5 82.205 85.312C82.205 86.152 81.9157 86.8147 81.337 87.3C80.7583 87.776 79.9323 88.0093 78.859 88H74.855V80.412H77.501V82.764H79.195ZM78.593 86.18C78.9103 86.18 79.1577 86.1053 79.335 85.956C79.5123 85.8067 79.601 85.578 79.601 85.27C79.601 84.9527 79.5123 84.7287 79.335 84.598C79.167 84.4673 78.9197 84.3973 78.593 84.388H77.501V86.166L78.593 86.18ZM88.9904 88V81.938L89.5644 82.526H86.5404V80.412H94.0724V82.526H91.0484L91.6364 81.938V88H88.9904ZM99.597 88V86.586L99.415 86.236V83.632C99.415 83.212 99.2844 82.89 99.023 82.666C98.771 82.4327 98.365 82.316 97.805 82.316C97.441 82.316 97.0724 82.3767 96.699 82.498C96.3257 82.61 96.0084 82.7687 95.747 82.974L94.851 81.168C95.2804 80.888 95.7937 80.6733 96.391 80.524C96.9977 80.3653 97.5997 80.286 98.197 80.286C99.429 80.286 100.381 80.5707 101.053 81.14C101.734 81.7 102.075 82.582 102.075 83.786V88H99.597ZM97.357 88.126C96.7504 88.126 96.237 88.0233 95.817 87.818C95.397 87.6127 95.075 87.3327 94.851 86.978C94.6364 86.6233 94.529 86.2267 94.529 85.788C94.529 85.3213 94.6457 84.92 94.879 84.584C95.1217 84.2387 95.4904 83.9773 95.985 83.8C96.4797 83.6133 97.119 83.52 97.903 83.52H99.695V84.906H98.267C97.8377 84.906 97.5344 84.976 97.357 85.116C97.189 85.256 97.105 85.4427 97.105 85.676C97.105 85.9093 97.1937 86.096 97.371 86.236C97.5484 86.376 97.791 86.446 98.099 86.446C98.3884 86.446 98.6497 86.376 98.883 86.236C99.1257 86.0867 99.303 85.8627 99.415 85.564L99.779 86.544C99.639 87.0667 99.3637 87.4633 98.953 87.734C98.5517 87.9953 98.0197 88.126 97.357 88.126ZM112.524 88.126C111.88 88.126 111.329 87.986 110.872 87.706C110.414 87.4167 110.064 86.9873 109.822 86.418C109.588 85.8393 109.472 85.102 109.472 84.206C109.472 83.3007 109.584 82.5633 109.808 81.994C110.032 81.4153 110.368 80.986 110.816 80.706C111.273 80.426 111.842 80.286 112.524 80.286C113.214 80.286 113.84 80.4493 114.4 80.776C114.969 81.0933 115.417 81.546 115.744 82.134C116.08 82.7127 116.248 83.4033 116.248 84.206C116.248 85.0087 116.08 85.704 115.744 86.292C115.417 86.88 114.969 87.3327 114.4 87.65C113.84 87.9673 113.214 88.126 112.524 88.126ZM107.75 90.716V80.412H110.284V81.7L110.27 84.206L110.41 86.726V90.716H107.75ZM111.964 86.012C112.262 86.012 112.528 85.942 112.762 85.802C113.004 85.662 113.196 85.4567 113.336 85.186C113.485 84.9153 113.56 84.5887 113.56 84.206C113.56 83.8233 113.485 83.4967 113.336 83.226C113.196 82.9553 113.004 82.75 112.762 82.61C112.528 82.47 112.262 82.4 111.964 82.4C111.665 82.4 111.394 82.47 111.152 82.61C110.918 82.75 110.727 82.9553 110.578 83.226C110.438 83.4967 110.368 83.8233 110.368 84.206C110.368 84.5887 110.438 84.9153 110.578 85.186C110.727 85.4567 110.918 85.662 111.152 85.802C111.394 85.942 111.665 86.012 111.964 86.012ZM121.855 88V86.586L121.673 86.236V83.632C121.673 83.212 121.542 82.89 121.281 82.666C121.029 82.4327 120.623 82.316 120.063 82.316C119.699 82.316 119.33 82.3767 118.957 82.498C118.584 82.61 118.266 82.7687 118.005 82.974L117.109 81.168C117.538 80.888 118.052 80.6733 118.649 80.524C119.256 80.3653 119.858 80.286 120.455 80.286C121.687 80.286 122.639 80.5707 123.311 81.14C123.992 81.7 124.333 82.582 124.333 83.786V88H121.855ZM119.615 88.126C119.008 88.126 118.495 88.0233 118.075 87.818C117.655 87.6127 117.333 87.3327 117.109 86.978C116.894 86.6233 116.787 86.2267 116.787 85.788C116.787 85.3213 116.904 84.92 117.137 84.584C117.38 84.2387 117.748 83.9773 118.243 83.8C118.738 83.6133 119.377 83.52 120.161 83.52H121.953V84.906H120.525C120.096 84.906 119.792 84.976 119.615 85.116C119.447 85.256 119.363 85.4427 119.363 85.676C119.363 85.9093 119.452 86.096 119.629 86.236C119.806 86.376 120.049 86.446 120.357 86.446C120.646 86.446 120.908 86.376 121.141 86.236C121.384 86.0867 121.561 85.8627 121.673 85.564L122.037 86.544C121.897 87.0667 121.622 87.4633 121.211 87.734C120.81 87.9953 120.278 88.126 119.615 88.126ZM129.881 88.196C129.265 88.196 128.691 88.1073 128.159 87.93C127.636 87.7527 127.179 87.4727 126.787 87.09C126.404 86.7073 126.101 86.208 125.877 85.592C125.662 84.976 125.555 84.2293 125.555 83.352C125.555 82.764 125.606 82.2227 125.709 81.728C125.812 81.2333 125.966 80.7807 126.171 80.37C126.386 79.95 126.656 79.5813 126.983 79.264C127.319 78.9467 127.711 78.6807 128.159 78.466C128.607 78.2513 129.12 78.088 129.699 77.976L133.381 77.276L133.745 79.502L130.553 80.104C130.357 80.1413 130.142 80.188 129.909 80.244C129.685 80.3 129.466 80.384 129.251 80.496C129.036 80.5987 128.836 80.7433 128.649 80.93C128.472 81.1167 128.327 81.364 128.215 81.672C128.112 81.9707 128.061 82.344 128.061 82.792C128.061 82.9227 128.066 83.03 128.075 83.114C128.094 83.1887 128.108 83.2773 128.117 83.38C128.126 83.4733 128.131 83.618 128.131 83.814L127.389 83.128C127.613 82.736 127.879 82.4047 128.187 82.134C128.504 81.8633 128.868 81.6533 129.279 81.504C129.69 81.3547 130.147 81.28 130.651 81.28C131.388 81.28 132.023 81.4247 132.555 81.714C133.087 81.994 133.493 82.386 133.773 82.89C134.062 83.3847 134.207 83.9493 134.207 84.584C134.207 85.3307 134.02 85.9747 133.647 86.516C133.274 87.048 132.76 87.4633 132.107 87.762C131.463 88.0513 130.721 88.196 129.881 88.196ZM129.951 86.18C130.259 86.18 130.525 86.1147 130.749 85.984C130.982 85.8533 131.164 85.6713 131.295 85.438C131.426 85.2047 131.491 84.9433 131.491 84.654C131.491 84.3553 131.426 84.0987 131.295 83.884C131.164 83.6693 130.982 83.5013 130.749 83.38C130.525 83.2587 130.259 83.198 129.951 83.198C129.643 83.198 129.368 83.2587 129.125 83.38C128.892 83.5013 128.71 83.6647 128.579 83.87C128.448 84.0753 128.383 84.3227 128.383 84.612C128.383 84.9013 128.448 85.1673 128.579 85.41C128.71 85.6527 128.892 85.844 129.125 85.984C129.368 86.1147 129.643 86.18 129.951 86.18ZM139.173 88.126C138.342 88.126 137.605 87.958 136.961 87.622C136.317 87.286 135.808 86.824 135.435 86.236C135.071 85.6387 134.889 84.9573 134.889 84.192C134.889 83.4267 135.071 82.75 135.435 82.162C135.808 81.574 136.317 81.1167 136.961 80.79C137.605 80.454 138.342 80.286 139.173 80.286C140.004 80.286 140.741 80.454 141.385 80.79C142.038 81.1167 142.547 81.574 142.911 82.162C143.275 82.75 143.457 83.4267 143.457 84.192C143.457 84.9573 143.275 85.6387 142.911 86.236C142.547 86.824 142.038 87.286 141.385 87.622C140.741 87.958 140.004 88.126 139.173 88.126ZM139.173 86.012C139.481 86.012 139.752 85.942 139.985 85.802C140.228 85.662 140.419 85.4567 140.559 85.186C140.699 84.906 140.769 84.5747 140.769 84.192C140.769 83.8093 140.699 83.4873 140.559 83.226C140.419 82.9553 140.228 82.75 139.985 82.61C139.752 82.47 139.481 82.4 139.173 82.4C138.874 82.4 138.604 82.47 138.361 82.61C138.128 82.75 137.936 82.9553 137.787 83.226C137.647 83.4873 137.577 83.8093 137.577 84.192C137.577 84.5747 137.647 84.906 137.787 85.186C137.936 85.4567 138.128 85.662 138.361 85.802C138.604 85.942 138.874 86.012 139.173 86.012ZM146.125 88V81.938L146.699 82.526H143.675V80.412H151.207V82.526H148.183L148.771 81.938V88H146.125ZM160.232 88V80.412H162.878V88H160.232ZM156.578 82.764C157.586 82.7733 158.337 82.9973 158.832 83.436C159.336 83.8747 159.588 84.5 159.588 85.312C159.588 86.152 159.298 86.8147 158.72 87.3C158.141 87.776 157.315 88.0093 156.242 88H152.238V80.412H154.884V82.764H156.578ZM155.976 86.18C156.293 86.18 156.54 86.1053 156.718 85.956C156.895 85.8067 156.984 85.578 156.984 85.27C156.984 84.9527 156.895 84.7287 156.718 84.598C156.55 84.4673 156.302 84.3973 155.976 84.388H154.884V86.166L155.976 86.18Z" fill="white"/>
<path fill-rule="evenodd" clip-rule="evenodd" d="M114.131 0.227208C113.694 0.347801 111.101 1.03954 108.368 1.76435C105.635 2.48925 102.493 3.32269 101.386 3.61657C99.2761 4.17645 99.0443 4.28018 98.963 4.70135C98.9412 4.81494 98.9571 4.99823 98.9985 5.10866C99.0399 5.21917 99.8591 6.08955 100.819 7.04287L102.564 8.77623L96.9214 14.3662C93.4706 17.7849 91.2521 19.9264 91.2096 19.8795C91.1479 19.8111 85.4731 13.1622 83.8502 11.2565C82.6165 9.808 81.9181 9.01079 81.8074 8.92454C81.6254 8.783 81.3353 8.74094 81.1106 8.82349C80.7899 8.94124 58.1414 31.4057 58.0415 31.705C57.9872 31.8679 57.9862 32.018 58.0385 32.1543C58.0817 32.2669 58.9602 33.1935 59.9908 34.2136C61.8439 36.0478 61.8683 36.0683 62.2002 36.0683H62.5357L71.7745 26.9149C76.8557 21.8805 81.0265 17.7778 81.0426 17.7975C81.0588 17.8174 82.0531 18.9827 83.252 20.3872C84.451 21.7916 85.6645 23.2138 85.9487 23.5476C86.2329 23.8814 86.8105 24.5578 87.2322 25.0507C87.6538 25.5434 88.5399 26.584 89.2011 27.363C89.8624 28.142 90.4968 28.8278 90.6111 28.887C91.0933 29.1374 90.8485 29.3598 99.2051 21.0818L107.095 13.2659L108.825 14.9703C109.776 15.9077 110.632 16.714 110.728 16.7619C111.122 16.9596 111.651 16.748 111.783 16.3401C111.825 16.2085 112.183 14.8956 112.577 13.4226C113.476 10.0649 113.607 9.57855 113.745 9.09043C113.884 8.59782 114.425 6.60863 114.635 5.82158C114.721 5.49667 115.067 4.20906 115.403 2.9602C115.942 0.957618 116.003 0.662949 115.919 0.463195C115.796 0.169078 115.515 -0.0090938 115.188 0.000358286C115.044 0.00445419 114.569 0.106536 114.131 0.227208ZM113.731 3.26818C113.53 4.00103 112.99 6.00078 112.53 7.712C112.071 9.42322 111.647 11.0005 111.588 11.2171C111.529 11.4338 111.314 12.2313 111.109 12.9894C110.905 13.7476 110.712 14.4134 110.681 14.4691C110.642 14.5375 110.149 14.096 109.158 13.1074C108.352 12.3028 107.595 11.5926 107.477 11.5293C106.948 11.2452 107.412 10.8267 98.9041 19.2549L90.9889 27.0957L89.1247 24.9079C88.0993 23.7047 87.0449 22.4714 86.7815 22.1673C86.5181 21.8632 85.2355 20.3643 83.9314 18.8364C82.6273 17.3085 81.4873 16.0198 81.3983 15.9726C81.3093 15.9253 81.1082 15.9074 80.9514 15.9325C80.7004 15.9729 79.5715 17.0632 71.4416 25.1179L62.2168 34.2575L61.0452 33.0947L59.8736 31.9319L70.6093 21.2988C79.7205 12.2748 81.3596 10.6842 81.4407 10.7874C81.4934 10.8543 82.0194 11.4713 82.6097 12.1585C83.2 12.8457 84.1838 13.9988 84.796 14.721C85.4081 15.4431 86.3919 16.5942 86.9822 17.2791C87.5725 17.964 88.1628 18.6566 88.294 18.8182C88.9946 19.6814 90.6705 21.5878 90.8198 21.6915C90.9148 21.7574 91.1185 21.8114 91.2725 21.8114C91.5373 21.8114 91.8968 21.4701 97.9725 15.4503L104.393 9.08932V8.74645C104.393 8.40649 104.38 8.39042 102.863 6.87777C102.021 6.03866 101.323 5.32086 101.31 5.28273C101.297 5.24461 101.672 5.11252 102.144 4.98917C102.616 4.86582 105.488 4.10461 108.527 3.29772C111.566 2.49075 114.062 1.85415 114.074 1.88313C114.086 1.91204 113.932 2.53533 113.731 3.26818ZM100.938 25.3988L100.736 25.5994V45.5693V65.5394L100.968 65.7696L101.2 65.9999H108.286C115.981 65.9999 115.699 66.0159 115.905 65.5688C115.978 65.4104 116 60.7521 116 45.5915C116 24.23 116.024 25.501 115.607 25.2795C115.505 25.2255 113.053 25.1984 108.297 25.1984H101.14L100.938 25.3988ZM114.428 34.9064C114.44 39.4227 114.44 47.9296 114.429 53.8106L114.408 64.5033H108.327H102.246V45.5991V26.6949H108.327H114.408L114.428 34.9064ZM80.0935 33.3246C79.9994 33.3701 79.8636 33.5186 79.7918 33.6547C79.6716 33.8823 79.663 35.1737 79.6845 49.7609L79.708 65.6196L79.931 65.8098L80.1541 65.9999H87.3108H94.4675L94.6998 65.7696L94.9322 65.5394V49.6267V33.7141L94.7404 33.493L94.5486 33.272L87.4065 33.257C82.5524 33.2468 80.2097 33.2685 80.0935 33.3246ZM88.8703 34.8069L93.4217 34.808V49.6556V64.5033H87.3002H81.1787V49.6574V34.8116L82.5898 34.7868C83.3659 34.7732 84.0725 34.7718 84.16 34.7839C84.2474 34.7959 86.367 34.8063 88.8703 34.8069ZM59.8224 40.7763C59.7291 40.8512 59.6128 40.9899 59.564 41.0845C59.4382 41.3282 59.4375 65.1604 59.5633 65.5179C59.7407 66.022 59.3908 65.9999 67.1767 65.9999H74.25L74.4946 65.7959L74.7392 65.592V53.322V41.0521L74.5297 40.8444L74.32 40.6368L67.156 40.6385C60.4882 40.6401 59.9802 40.6497 59.8224 40.7763ZM73.2287 53.3183V64.5033H67.147H61.0652V53.3183V42.1333H67.147H73.2287V53.3183Z" fill="white"/>
</svg>
