<svg width="176" height="121" viewBox="0 0 176 121" fill="none" xmlns="http://www.w3.org/2000/svg">
<path d="M48.9666 84.196C48.1919 84.196 47.4732 84.0747 46.8106 83.832C46.1572 83.58 45.5879 83.2253 45.1026 82.768C44.6266 82.3107 44.2532 81.774 43.9826 81.158C43.7119 80.5327 43.5766 79.8467 43.5766 79.1C43.5766 78.3533 43.7119 77.672 43.9826 77.056C44.2532 76.4307 44.6266 75.8893 45.1026 75.432C45.5879 74.9747 46.1572 74.6247 46.8106 74.382C47.4732 74.13 48.1919 74.004 48.9666 74.004C49.8719 74.004 50.6792 74.1627 51.3886 74.48C52.1072 74.7973 52.7046 75.2547 53.1806 75.852L51.4166 77.448C51.0992 77.0747 50.7492 76.79 50.3666 76.594C49.9932 76.398 49.5732 76.3 49.1066 76.3C48.7052 76.3 48.3366 76.3653 48.0006 76.496C47.6646 76.6267 47.3752 76.818 47.1326 77.07C46.8992 77.3127 46.7126 77.6067 46.5726 77.952C46.4419 78.2973 46.3766 78.68 46.3766 79.1C46.3766 79.52 46.4419 79.9027 46.5726 80.248C46.7126 80.5933 46.8992 80.892 47.1326 81.144C47.3752 81.3867 47.6646 81.5733 48.0006 81.704C48.3366 81.8347 48.7052 81.9 49.1066 81.9C49.5732 81.9 49.9932 81.802 50.3666 81.606C50.7492 81.41 51.0992 81.1253 51.4166 80.752L53.1806 82.348C52.7046 82.936 52.1072 83.3933 51.3886 83.72C50.6792 84.0373 49.8719 84.196 48.9666 84.196ZM58.7455 84V82.586L58.5635 82.236V79.632C58.5635 79.212 58.4328 78.89 58.1715 78.666C57.9195 78.4327 57.5135 78.316 56.9535 78.316C56.5895 78.316 56.2208 78.3767 55.8475 78.498C55.4741 78.61 55.1568 78.7687 54.8955 78.974L53.9995 77.168C54.4288 76.888 54.9421 76.6733 55.5395 76.524C56.1461 76.3653 56.7481 76.286 57.3455 76.286C58.5775 76.286 59.5295 76.5707 60.2015 77.14C60.8828 77.7 61.2235 78.582 61.2235 79.786V84H58.7455ZM56.5055 84.126C55.8988 84.126 55.3855 84.0233 54.9655 83.818C54.5455 83.6127 54.2235 83.3327 53.9995 82.978C53.7848 82.6233 53.6775 82.2267 53.6775 81.788C53.6775 81.3213 53.7941 80.92 54.0275 80.584C54.2701 80.2387 54.6388 79.9773 55.1335 79.8C55.6281 79.6133 56.2675 79.52 57.0515 79.52H58.8435V80.906H57.4155C56.9861 80.906 56.6828 80.976 56.5055 81.116C56.3375 81.256 56.2535 81.4427 56.2535 81.676C56.2535 81.9093 56.3421 82.096 56.5195 82.236C56.6968 82.376 56.9395 82.446 57.2475 82.446C57.5368 82.446 57.7981 82.376 58.0315 82.236C58.2741 82.0867 58.4515 81.8627 58.5635 81.564L58.9275 82.544C58.7875 83.0667 58.5121 83.4633 58.1015 83.734C57.7001 83.9953 57.1681 84.126 56.5055 84.126ZM66.7717 84.196C66.1557 84.196 65.5817 84.1073 65.0497 83.93C64.5271 83.7527 64.0697 83.4727 63.6777 83.09C63.2951 82.7073 62.9917 82.208 62.7677 81.592C62.5531 80.976 62.4457 80.2293 62.4457 79.352C62.4457 78.764 62.4971 78.2227 62.5997 77.728C62.7024 77.2333 62.8564 76.7807 63.0617 76.37C63.2764 75.95 63.5471 75.5813 63.8737 75.264C64.2097 74.9467 64.6017 74.6807 65.0497 74.466C65.4977 74.2513 66.0111 74.088 66.5897 73.976L70.2717 73.276L70.6357 75.502L67.4437 76.104C67.2477 76.1413 67.0331 76.188 66.7997 76.244C66.5757 76.3 66.3564 76.384 66.1417 76.496C65.9271 76.5987 65.7264 76.7433 65.5397 76.93C65.3624 77.1167 65.2177 77.364 65.1057 77.672C65.0031 77.9707 64.9517 78.344 64.9517 78.792C64.9517 78.9227 64.9564 79.03 64.9657 79.114C64.9844 79.1887 64.9984 79.2773 65.0077 79.38C65.0171 79.4733 65.0217 79.618 65.0217 79.814L64.2797 79.128C64.5037 78.736 64.7697 78.4047 65.0777 78.134C65.3951 77.8633 65.7591 77.6533 66.1697 77.504C66.5804 77.3547 67.0377 77.28 67.5417 77.28C68.2791 77.28 68.9137 77.4247 69.4457 77.714C69.9777 77.994 70.3837 78.386 70.6637 78.89C70.9531 79.3847 71.0977 79.9493 71.0977 80.584C71.0977 81.3307 70.9111 81.9747 70.5377 82.516C70.1644 83.048 69.6511 83.4633 68.9977 83.762C68.3537 84.0513 67.6117 84.196 66.7717 84.196ZM66.8417 82.18C67.1497 82.18 67.4157 82.1147 67.6397 81.984C67.8731 81.8533 68.0551 81.6713 68.1857 81.438C68.3164 81.2047 68.3817 80.9433 68.3817 80.654C68.3817 80.3553 68.3164 80.0987 68.1857 79.884C68.0551 79.6693 67.8731 79.5013 67.6397 79.38C67.4157 79.2587 67.1497 79.198 66.8417 79.198C66.5337 79.198 66.2584 79.2587 66.0157 79.38C65.7824 79.5013 65.6004 79.6647 65.4697 79.87C65.3391 80.0753 65.2737 80.3227 65.2737 80.612C65.2737 80.9013 65.3391 81.1673 65.4697 81.41C65.6004 81.6527 65.7824 81.844 66.0157 81.984C66.2584 82.1147 66.5337 82.18 66.8417 82.18ZM71.419 84L71.531 81.83C71.5963 81.8393 71.657 81.8487 71.713 81.858C71.769 81.858 71.8203 81.858 71.867 81.858C72.1003 81.858 72.2823 81.802 72.413 81.69C72.553 81.5687 72.6556 81.4053 72.721 81.2C72.7956 80.9947 72.847 80.7567 72.875 80.486C72.9123 80.206 72.9356 79.9027 72.945 79.576L73.057 76.412H79.917V84H77.257V77.924L77.845 78.526H74.807L75.367 77.896L75.283 79.688C75.255 80.3693 75.1943 80.99 75.101 81.55C75.017 82.1007 74.8816 82.572 74.695 82.964C74.5083 83.356 74.2516 83.6593 73.925 83.874C73.6076 84.0793 73.2016 84.182 72.707 84.182C72.5296 84.182 72.329 84.1633 72.105 84.126C71.8903 84.098 71.6616 84.056 71.419 84ZM81.7046 84V76.412H84.3506V79.03H86.5486V81.27H84.3506V84H81.7046ZM89.1526 84.126C88.3499 84.126 87.6359 83.958 87.0106 83.622C86.3853 83.286 85.8953 82.824 85.5406 82.236C85.1859 81.6387 85.0086 80.9573 85.0086 80.192C85.0086 79.4267 85.1859 78.75 85.5406 78.162C85.8953 77.574 86.3853 77.1167 87.0106 76.79C87.6359 76.454 88.3499 76.286 89.1526 76.286C89.9553 76.286 90.6693 76.454 91.2946 76.79C91.9199 77.1167 92.4099 77.574 92.7646 78.162C93.1193 78.75 93.2966 79.4267 93.2966 80.192C93.2966 80.9573 93.1193 81.6387 92.7646 82.236C92.4099 82.824 91.9199 83.286 91.2946 83.622C90.6693 83.958 89.9553 84.126 89.1526 84.126ZM89.1526 82.012C89.4419 82.012 89.6986 81.942 89.9226 81.802C90.1559 81.662 90.3379 81.4567 90.4686 81.186C90.6086 80.906 90.6786 80.5793 90.6786 80.206C90.6786 79.814 90.6086 79.4873 90.4686 79.226C90.3379 78.9553 90.1559 78.75 89.9226 78.61C89.6986 78.47 89.4419 78.4 89.1526 78.4C88.8726 78.4 88.6159 78.47 88.3826 78.61C88.1493 78.75 87.9626 78.9553 87.8226 79.226C87.6919 79.4873 87.6266 79.814 87.6266 80.206C87.6266 80.5793 87.6919 80.906 87.8226 81.186C87.9626 81.4567 88.1493 81.662 88.3826 81.802C88.6159 81.942 88.8726 82.012 89.1526 82.012ZM99.6834 82.838V78.526H97.6534L97.6254 79.254C97.6068 79.618 97.5834 79.9633 97.5554 80.29C97.5368 80.6073 97.4901 80.8967 97.4154 81.158C97.3408 81.4193 97.2334 81.6433 97.0934 81.83C96.9534 82.0073 96.7668 82.138 96.5334 82.222L93.9294 81.872C94.1814 81.872 94.3868 81.802 94.5454 81.662C94.7134 81.5127 94.8441 81.3073 94.9374 81.046C95.0308 80.7847 95.0961 80.486 95.1334 80.15C95.1801 79.8047 95.2128 79.4407 95.2314 79.058L95.3294 76.412H102.343V82.838H99.6834ZM93.6774 85.568V81.872H103.393V85.568H100.929V84H96.1554V85.568H93.6774ZM109.031 84V82.586L108.849 82.236V79.632C108.849 79.212 108.718 78.89 108.457 78.666C108.205 78.4327 107.799 78.316 107.239 78.316C106.875 78.316 106.506 78.3767 106.133 78.498C105.759 78.61 105.442 78.7687 105.181 78.974L104.285 77.168C104.714 76.888 105.227 76.6733 105.825 76.524C106.431 76.3653 107.033 76.286 107.631 76.286C108.863 76.286 109.815 76.5707 110.487 77.14C111.168 77.7 111.509 78.582 111.509 79.786V84H109.031ZM106.791 84.126C106.184 84.126 105.671 84.0233 105.251 83.818C104.831 83.6127 104.509 83.3327 104.285 82.978C104.07 82.6233 103.963 82.2267 103.963 81.788C103.963 81.3213 104.079 80.92 104.313 80.584C104.555 80.2387 104.924 79.9773 105.419 79.8C105.913 79.6133 106.553 79.52 107.337 79.52H109.129V80.906H107.701C107.271 80.906 106.968 80.976 106.791 81.116C106.623 81.256 106.539 81.4427 106.539 81.676C106.539 81.9093 106.627 82.096 106.805 82.236C106.982 82.376 107.225 82.446 107.533 82.446C107.822 82.446 108.083 82.376 108.317 82.236C108.559 82.0867 108.737 81.8627 108.849 81.564L109.213 82.544C109.073 83.0667 108.797 83.4633 108.387 83.734C107.985 83.9953 107.453 84.126 106.791 84.126ZM117.015 84.126C116.119 84.126 115.335 83.958 114.663 83.622C114 83.2767 113.482 82.81 113.109 82.222C112.745 81.6247 112.563 80.948 112.563 80.192C112.563 79.436 112.74 78.764 113.095 78.176C113.459 77.5787 113.958 77.1167 114.593 76.79C115.228 76.454 115.942 76.286 116.735 76.286C117.482 76.286 118.163 76.44 118.779 76.748C119.395 77.0467 119.885 77.49 120.249 78.078C120.613 78.666 120.795 79.38 120.795 80.22C120.795 80.3133 120.79 80.4207 120.781 80.542C120.772 80.6633 120.762 80.7753 120.753 80.878H114.747V79.478H119.339L118.331 79.87C118.34 79.5247 118.275 79.226 118.135 78.974C118.004 78.722 117.818 78.526 117.575 78.386C117.342 78.246 117.066 78.176 116.749 78.176C116.432 78.176 116.152 78.246 115.909 78.386C115.676 78.526 115.494 78.7267 115.363 78.988C115.232 79.24 115.167 79.5387 115.167 79.884V80.29C115.167 80.6633 115.242 80.9853 115.391 81.256C115.55 81.5267 115.774 81.7367 116.063 81.886C116.352 82.026 116.698 82.096 117.099 82.096C117.472 82.096 117.79 82.0447 118.051 81.942C118.322 81.83 118.588 81.662 118.849 81.438L120.249 82.894C119.885 83.2953 119.437 83.6033 118.905 83.818C118.373 84.0233 117.743 84.126 117.015 84.126ZM122.201 84V76.412H125.001L127.647 81.368H126.541L129.439 76.412H131.945L131.959 84H129.565V79.044L129.971 79.324L127.619 83.328H126.485L124.133 79.128L124.595 79.002V84H122.201ZM11.2401 99.838V95.526H9.21008L9.18208 96.254C9.16341 96.618 9.14008 96.9633 9.11208 97.29C9.09341 97.6073 9.04675 97.8967 8.97208 98.158C8.89741 98.4193 8.79008 98.6433 8.65008 98.83C8.51008 99.0073 8.32341 99.138 8.09008 99.222L5.48608 98.872C5.73808 98.872 5.94341 98.802 6.10208 98.662C6.27008 98.5127 6.40074 98.3073 6.49408 98.046C6.58741 97.7847 6.65274 97.486 6.69008 97.15C6.73674 96.8047 6.76941 96.4407 6.78808 96.058L6.88608 93.412H13.9001V99.838H11.2401ZM5.23408 102.568V98.872H14.9501V102.568H12.4861V101H7.71208V102.568H5.23408ZM19.8313 101.126C19.0006 101.126 18.2633 100.958 17.6193 100.622C16.9753 100.286 16.4666 99.824 16.0933 99.236C15.7293 98.6387 15.5473 97.9573 15.5473 97.192C15.5473 96.4267 15.7293 95.75 16.0933 95.162C16.4666 94.574 16.9753 94.1167 17.6193 93.79C18.2633 93.454 19.0006 93.286 19.8313 93.286C20.6619 93.286 21.3993 93.454 22.0433 93.79C22.6966 94.1167 23.2053 94.574 23.5693 95.162C23.9333 95.75 24.1153 96.4267 24.1153 97.192C24.1153 97.9573 23.9333 98.6387 23.5693 99.236C23.2053 99.824 22.6966 100.286 22.0433 100.622C21.3993 100.958 20.6619 101.126 19.8313 101.126ZM19.8313 99.012C20.1393 99.012 20.4099 98.942 20.6433 98.802C20.8859 98.662 21.0773 98.4567 21.2173 98.186C21.3573 97.906 21.4273 97.5747 21.4273 97.192C21.4273 96.8093 21.3573 96.4873 21.2173 96.226C21.0773 95.9553 20.8859 95.75 20.6433 95.61C20.4099 95.47 20.1393 95.4 19.8313 95.4C19.5326 95.4 19.2619 95.47 19.0193 95.61C18.7859 95.75 18.5946 95.9553 18.4453 96.226C18.3053 96.4873 18.2353 96.8093 18.2353 97.192C18.2353 97.5747 18.3053 97.906 18.4453 98.186C18.5946 98.4567 18.7859 98.662 19.0193 98.802C19.2619 98.942 19.5326 99.012 19.8313 99.012ZM30.1368 101.126C29.4928 101.126 28.9421 100.986 28.4848 100.706C28.0275 100.417 27.6775 99.9873 27.4348 99.418C27.2015 98.8393 27.0848 98.102 27.0848 97.206C27.0848 96.3007 27.1968 95.5633 27.4208 94.994C27.6448 94.4153 27.9808 93.986 28.4288 93.706C28.8861 93.426 29.4555 93.286 30.1368 93.286C30.8275 93.286 31.4528 93.4493 32.0128 93.776C32.5821 94.0933 33.0301 94.546 33.3568 95.134C33.6928 95.7127 33.8608 96.4033 33.8608 97.206C33.8608 98.0087 33.6928 98.704 33.3568 99.292C33.0301 99.88 32.5821 100.333 32.0128 100.65C31.4528 100.967 30.8275 101.126 30.1368 101.126ZM25.3628 103.716V93.412H27.8968V94.7L27.8828 97.206L28.0228 99.726V103.716H25.3628ZM29.5768 99.012C29.8755 99.012 30.1415 98.942 30.3748 98.802C30.6175 98.662 30.8088 98.4567 30.9488 98.186C31.0981 97.9153 31.1728 97.5887 31.1728 97.206C31.1728 96.8233 31.0981 96.4967 30.9488 96.226C30.8088 95.9553 30.6175 95.75 30.3748 95.61C30.1415 95.47 29.8755 95.4 29.5768 95.4C29.2781 95.4 29.0075 95.47 28.7648 95.61C28.5315 95.75 28.3401 95.9553 28.1908 96.226C28.0508 96.4967 27.9808 96.8233 27.9808 97.206C27.9808 97.5887 28.0508 97.9153 28.1908 98.186C28.3401 98.4567 28.5315 98.662 28.7648 98.802C29.0075 98.942 29.2781 99.012 29.5768 99.012ZM38.8762 101.126C38.0455 101.126 37.3082 100.958 36.6642 100.622C36.0202 100.286 35.5115 99.824 35.1382 99.236C34.7742 98.6387 34.5922 97.9573 34.5922 97.192C34.5922 96.4267 34.7742 95.75 35.1382 95.162C35.5115 94.574 36.0202 94.1167 36.6642 93.79C37.3082 93.454 38.0455 93.286 38.8762 93.286C39.7069 93.286 40.4442 93.454 41.0882 93.79C41.7415 94.1167 42.2502 94.574 42.6142 95.162C42.9782 95.75 43.1602 96.4267 43.1602 97.192C43.1602 97.9573 42.9782 98.6387 42.6142 99.236C42.2502 99.824 41.7415 100.286 41.0882 100.622C40.4442 100.958 39.7069 101.126 38.8762 101.126ZM38.8762 99.012C39.1842 99.012 39.4549 98.942 39.6882 98.802C39.9309 98.662 40.1222 98.4567 40.2622 98.186C40.4022 97.906 40.4722 97.5747 40.4722 97.192C40.4722 96.8093 40.4022 96.4873 40.2622 96.226C40.1222 95.9553 39.9309 95.75 39.6882 95.61C39.4549 95.47 39.1842 95.4 38.8762 95.4C38.5775 95.4 38.3069 95.47 38.0642 95.61C37.8309 95.75 37.6395 95.9553 37.4902 96.226C37.3502 96.4873 37.2802 96.8093 37.2802 97.192C37.2802 97.5747 37.3502 97.906 37.4902 98.186C37.6395 98.4567 37.8309 98.662 38.0642 98.802C38.3069 98.942 38.5775 99.012 38.8762 99.012ZM53.415 101L51.609 97.458L53.751 96.198L56.565 101H53.415ZM50.475 98.298V96.212H53.205V98.298H50.475ZM54.031 97.5L51.525 97.248L53.583 93.412H56.397L54.031 97.5ZM46.471 101H43.321L46.121 96.198L48.263 97.458L46.471 101ZM51.259 101H48.641V93.412H51.259V101ZM49.411 98.298H46.681V96.212H49.411V98.298ZM45.855 97.5L43.489 93.412H46.303L48.333 97.248L45.855 97.5ZM57.4917 101V93.412H60.1377V96.226H62.8677V93.412H65.5277V101H62.8677V98.34H60.1377V101H57.4917ZM75.3158 101V93.412H77.9618V101H75.3158ZM71.6618 95.764C72.6698 95.7733 73.4211 95.9973 73.9158 96.436C74.4198 96.8747 74.6718 97.5 74.6718 98.312C74.6718 99.152 74.3824 99.8147 73.8038 100.3C73.2251 100.776 72.3991 101.009 71.3258 101H67.3218V93.412H69.9678V95.764H71.6618ZM71.0598 99.18C71.3771 99.18 71.6244 99.1053 71.8018 98.956C71.9791 98.8067 72.0678 98.578 72.0678 98.27C72.0678 97.9527 71.9791 97.7287 71.8018 97.598C71.6338 97.4673 71.3864 97.3973 71.0598 97.388H69.9678V99.166L71.0598 99.18ZM83.6692 101.126C82.7732 101.126 81.9892 100.958 81.3172 100.622C80.6545 100.277 80.1365 99.81 79.7632 99.222C79.3992 98.6247 79.2172 97.948 79.2172 97.192C79.2172 96.436 79.3945 95.764 79.7492 95.176C80.1132 94.5787 80.6125 94.1167 81.2472 93.79C81.8819 93.454 82.5959 93.286 83.3892 93.286C84.1359 93.286 84.8172 93.44 85.4332 93.748C86.0492 94.0467 86.5392 94.49 86.9032 95.078C87.2672 95.666 87.4492 96.38 87.4492 97.22C87.4492 97.3133 87.4445 97.4207 87.4352 97.542C87.4259 97.6633 87.4165 97.7753 87.4072 97.878H81.4012V96.478H85.9932L84.9852 96.87C84.9945 96.5247 84.9292 96.226 84.7892 95.974C84.6585 95.722 84.4719 95.526 84.2292 95.386C83.9959 95.246 83.7205 95.176 83.4032 95.176C83.0859 95.176 82.8059 95.246 82.5632 95.386C82.3299 95.526 82.1479 95.7267 82.0172 95.988C81.8865 96.24 81.8212 96.5387 81.8212 96.884V97.29C81.8212 97.6633 81.8959 97.9853 82.0452 98.256C82.2039 98.5267 82.4279 98.7367 82.7172 98.886C83.0065 99.026 83.3519 99.096 83.7532 99.096C84.1265 99.096 84.4439 99.0447 84.7052 98.942C84.9759 98.83 85.2419 98.662 85.5032 98.438L86.9032 99.894C86.5392 100.295 86.0912 100.603 85.5592 100.818C85.0272 101.023 84.3972 101.126 83.6692 101.126ZM92.9292 101V93.412H100.769V101H98.1232V94.952L98.7112 95.526H95.0012L95.5752 94.952V101H92.9292ZM107.356 101.126C106.712 101.126 106.161 100.986 105.704 100.706C105.246 100.417 104.896 99.9873 104.654 99.418C104.42 98.8393 104.304 98.102 104.304 97.206C104.304 96.3007 104.416 95.5633 104.64 94.994C104.864 94.4153 105.2 93.986 105.648 93.706C106.105 93.426 106.674 93.286 107.356 93.286C108.046 93.286 108.672 93.4493 109.232 93.776C109.801 94.0933 110.249 94.546 110.576 95.134C110.912 95.7127 111.08 96.4033 111.08 97.206C111.08 98.0087 110.912 98.704 110.576 99.292C110.249 99.88 109.801 100.333 109.232 100.65C108.672 100.967 108.046 101.126 107.356 101.126ZM102.582 103.716V93.412H105.116V94.7L105.102 97.206L105.242 99.726V103.716H102.582ZM106.796 99.012C107.094 99.012 107.36 98.942 107.594 98.802C107.836 98.662 108.028 98.4567 108.168 98.186C108.317 97.9153 108.392 97.5887 108.392 97.206C108.392 96.8233 108.317 96.4967 108.168 96.226C108.028 95.9553 107.836 95.75 107.594 95.61C107.36 95.47 107.094 95.4 106.796 95.4C106.497 95.4 106.226 95.47 105.984 95.61C105.75 95.75 105.559 95.9553 105.41 96.226C105.27 96.4967 105.2 96.8233 105.2 97.206C105.2 97.5887 105.27 97.9153 105.41 98.186C105.559 98.4567 105.75 98.662 105.984 98.802C106.226 98.942 106.497 99.012 106.796 99.012ZM116.687 101V99.586L116.505 99.236V96.632C116.505 96.212 116.374 95.89 116.113 95.666C115.861 95.4327 115.455 95.316 114.895 95.316C114.531 95.316 114.162 95.3767 113.789 95.498C113.416 95.61 113.098 95.7687 112.837 95.974L111.941 94.168C112.37 93.888 112.884 93.6733 113.481 93.524C114.088 93.3653 114.69 93.286 115.287 93.286C116.519 93.286 117.471 93.5707 118.143 94.14C118.824 94.7 119.165 95.582 119.165 96.786V101H116.687ZM114.447 101.126C113.84 101.126 113.327 101.023 112.907 100.818C112.487 100.613 112.165 100.333 111.941 99.978C111.726 99.6233 111.619 99.2267 111.619 98.788C111.619 98.3213 111.736 97.92 111.969 97.584C112.212 97.2387 112.58 96.9773 113.075 96.8C113.57 96.6133 114.209 96.52 114.993 96.52H116.785V97.906H115.357C114.928 97.906 114.624 97.976 114.447 98.116C114.279 98.256 114.195 98.4427 114.195 98.676C114.195 98.9093 114.284 99.096 114.461 99.236C114.638 99.376 114.881 99.446 115.189 99.446C115.478 99.446 115.74 99.376 115.973 99.236C116.216 99.0867 116.393 98.8627 116.505 98.564L116.869 99.544C116.729 100.067 116.454 100.463 116.043 100.734C115.642 100.995 115.11 101.126 114.447 101.126ZM120.765 101V93.412H124.839C125.819 93.412 126.584 93.5847 127.135 93.93C127.686 94.266 127.961 94.7513 127.961 95.386C127.961 95.9927 127.704 96.478 127.191 96.842C126.687 97.1967 126.006 97.374 125.147 97.374L125.385 96.814C126.309 96.814 127.004 96.9867 127.471 97.332C127.947 97.668 128.185 98.1627 128.185 98.816C128.185 99.488 127.924 100.02 127.401 100.412C126.888 100.804 126.099 101 125.035 101H120.765ZM123.145 99.278H124.797C125.124 99.278 125.366 99.222 125.525 99.11C125.684 98.9887 125.763 98.8113 125.763 98.578C125.763 98.3353 125.684 98.158 125.525 98.046C125.376 97.934 125.142 97.878 124.825 97.878H123.145V99.278ZM123.145 96.464H124.601C124.918 96.464 125.152 96.408 125.301 96.296C125.45 96.1747 125.525 96.002 125.525 95.778C125.525 95.554 125.45 95.3907 125.301 95.288C125.152 95.176 124.918 95.12 124.601 95.12H123.145V96.464ZM129.529 101V93.412H132.175V97.388L135.353 93.412H137.803V101H135.143V97.01L131.993 101H129.529ZM138.821 101L138.933 98.83C138.999 98.8393 139.059 98.8487 139.115 98.858C139.171 98.858 139.223 98.858 139.269 98.858C139.503 98.858 139.685 98.802 139.815 98.69C139.955 98.5687 140.058 98.4053 140.123 98.2C140.198 97.9947 140.249 97.7567 140.277 97.486C140.315 97.206 140.338 96.9027 140.347 96.576L140.459 93.412H147.319V101H144.659V94.924L145.247 95.526H142.209L142.769 94.896L142.685 96.688C142.657 97.3693 142.597 97.99 142.503 98.55C142.419 99.1007 142.284 99.572 142.097 99.964C141.911 100.356 141.654 100.659 141.327 100.874C141.01 101.079 140.604 101.182 140.109 101.182C139.932 101.182 139.731 101.163 139.507 101.126C139.293 101.098 139.064 101.056 138.821 101ZM153.601 101V99.586L153.419 99.236V96.632C153.419 96.212 153.288 95.89 153.027 95.666C152.775 95.4327 152.369 95.316 151.809 95.316C151.445 95.316 151.076 95.3767 150.703 95.498C150.33 95.61 150.012 95.7687 149.751 95.974L148.855 94.168C149.284 93.888 149.798 93.6733 150.395 93.524C151.002 93.3653 151.604 93.286 152.201 93.286C153.433 93.286 154.385 93.5707 155.057 94.14C155.738 94.7 156.079 95.582 156.079 96.786V101H153.601ZM151.361 101.126C150.754 101.126 150.241 101.023 149.821 100.818C149.401 100.613 149.079 100.333 148.855 99.978C148.64 99.6233 148.533 99.2267 148.533 98.788C148.533 98.3213 148.65 97.92 148.883 97.584C149.126 97.2387 149.494 96.9773 149.989 96.8C150.484 96.6133 151.123 96.52 151.907 96.52H153.699V97.906H152.271C151.842 97.906 151.538 97.976 151.361 98.116C151.193 98.256 151.109 98.4427 151.109 98.676C151.109 98.9093 151.198 99.096 151.375 99.236C151.552 99.376 151.795 99.446 152.103 99.446C152.392 99.446 152.654 99.376 152.887 99.236C153.13 99.0867 153.307 98.8627 153.419 98.564L153.783 99.544C153.643 100.067 153.368 100.463 152.957 100.734C152.556 100.995 152.024 101.126 151.361 101.126ZM161.753 101V93.412H164.399V97.388L167.577 93.412H170.027V101H167.367V97.01L164.217 101H161.753ZM64.7371 115.06V113.296H68.5451V115.06H64.7371ZM65.8151 110.244C66.6645 110.244 67.4158 110.412 68.0691 110.748C68.7225 111.084 69.2358 111.551 69.6091 112.148C69.9825 112.736 70.1691 113.417 70.1691 114.192C70.1691 114.976 69.9825 115.667 69.6091 116.264C69.2358 116.861 68.7225 117.328 68.0691 117.664C67.4158 118 66.6645 118.168 65.8151 118.168C65.0498 118.168 64.3638 118.042 63.7571 117.79C63.1505 117.529 62.6465 117.16 62.2451 116.684L63.7711 115.284C64.0325 115.564 64.3218 115.783 64.6391 115.942C64.9565 116.101 65.3111 116.18 65.7031 116.18C66.1138 116.18 66.4685 116.101 66.7671 115.942C67.0751 115.774 67.3131 115.541 67.4811 115.242C67.6491 114.943 67.7331 114.593 67.7331 114.192C67.7331 113.8 67.6491 113.455 67.4811 113.156C67.3131 112.857 67.0751 112.629 66.7671 112.47C66.4685 112.302 66.1138 112.218 65.7031 112.218C65.3111 112.218 64.9565 112.297 64.6391 112.456C64.3218 112.615 64.0325 112.834 63.7711 113.114L62.2451 111.728C62.6465 111.252 63.1505 110.888 63.7571 110.636C64.3638 110.375 65.0498 110.244 65.8151 110.244ZM72.8302 118V111.938L73.4042 112.526H70.3802V110.412H77.9122V112.526H74.8882L75.4762 111.938V118H72.8302ZM78.9429 118V110.412H81.5889V114.388L84.7669 110.412H87.2169V118H84.5569V114.01L81.4069 118H78.9429ZM94.3254 118L92.0154 114.458L94.1574 113.198L97.4614 118H94.3254ZM89.0054 118V110.412H91.6654V118H89.0054ZM90.8814 115.298V113.212H93.6254V115.298H90.8814ZM94.4234 114.5L91.9314 114.248L94.4794 110.412H97.2934L94.4234 114.5ZM102.031 118.126C101.135 118.126 100.351 117.958 99.6785 117.622C99.0158 117.277 98.4978 116.81 98.1245 116.222C97.7605 115.625 97.5785 114.948 97.5785 114.192C97.5785 113.436 97.7558 112.764 98.1105 112.176C98.4745 111.579 98.9738 111.117 99.6085 110.79C100.243 110.454 100.957 110.286 101.751 110.286C102.497 110.286 103.179 110.44 103.795 110.748C104.411 111.047 104.901 111.49 105.265 112.078C105.629 112.666 105.811 113.38 105.811 114.22C105.811 114.313 105.806 114.421 105.797 114.542C105.787 114.663 105.778 114.775 105.769 114.878H99.7625V113.478H104.355L103.347 113.87C103.356 113.525 103.291 113.226 103.151 112.974C103.02 112.722 102.833 112.526 102.591 112.386C102.357 112.246 102.082 112.176 101.765 112.176C101.447 112.176 101.167 112.246 100.925 112.386C100.691 112.526 100.509 112.727 100.379 112.988C100.248 113.24 100.183 113.539 100.183 113.884V114.29C100.183 114.663 100.257 114.985 100.407 115.256C100.565 115.527 100.789 115.737 101.079 115.886C101.368 116.026 101.713 116.096 102.115 116.096C102.488 116.096 102.805 116.045 103.067 115.942C103.337 115.83 103.603 115.662 103.865 115.438L105.265 116.894C104.901 117.295 104.453 117.603 103.921 117.818C103.389 118.023 102.759 118.126 102.031 118.126ZM108.664 118V111.938L109.238 112.526H106.214V110.412H113.746V112.526H110.722L111.31 111.938V118H108.664Z" fill="white"/>
<path d="M86.2679 5C87.0378 3.66667 88.9622 3.66666 89.7321 5L114.847 48.5C115.617 49.8333 114.654 51.5 113.115 51.5H62.8853C61.3457 51.5 60.3834 49.8333 61.1532 48.5L86.2679 5Z" stroke="white" stroke-width="2"/>
<path d="M86.031 35.224L85.039 20.6H90.991L89.999 35.224H86.031ZM88.015 43.256C87.119 43.256 86.383 42.968 85.807 42.392C85.231 41.816 84.943 41.1333 84.943 40.344C84.943 39.5333 85.231 38.8613 85.807 38.328C86.383 37.7733 87.119 37.496 88.015 37.496C88.9323 37.496 89.6683 37.7733 90.223 38.328C90.799 38.8613 91.087 39.5333 91.087 40.344C91.087 41.1333 90.799 41.816 90.223 42.392C89.6683 42.968 88.9323 43.256 88.015 43.256Z" fill="white"/>
</svg>
