<svg width="176" height="104" viewBox="0 0 176 104" fill="none" xmlns="http://www.w3.org/2000/svg">
<path d="M14.5961 73.509H17.3681V83.309H14.5961V73.509ZM10.8161 83.309H8.04414V73.509H10.8161V83.309ZM14.7921 79.487H10.6201V77.191H14.7921V79.487ZM23.8138 83.309V81.895L23.6318 81.545V78.941C23.6318 78.521 23.5012 78.199 23.2398 77.975C22.9878 77.7417 22.5818 77.625 22.0218 77.625C21.6578 77.625 21.2892 77.6857 20.9158 77.807C20.5425 77.919 20.2252 78.0777 19.9638 78.283L19.0678 76.477C19.4972 76.197 20.0105 75.9824 20.6078 75.833C21.2145 75.6744 21.8165 75.595 22.4138 75.595C23.6458 75.595 24.5978 75.8797 25.2698 76.449C25.9512 77.009 26.2918 77.891 26.2918 79.095V83.309H23.8138ZM21.5738 83.435C20.9672 83.435 20.4538 83.3324 20.0338 83.127C19.6138 82.9217 19.2918 82.6417 19.0678 82.287C18.8532 81.9324 18.7458 81.5357 18.7458 81.097C18.7458 80.6304 18.8625 80.229 19.0958 79.893C19.3385 79.5477 19.7072 79.2864 20.2018 79.109C20.6965 78.9224 21.3358 78.829 22.1198 78.829H23.9118V80.215H22.4838C22.0545 80.215 21.7512 80.285 21.5738 80.425C21.4058 80.565 21.3218 80.7517 21.3218 80.985C21.3218 81.2184 21.4105 81.405 21.5878 81.545C21.7652 81.685 22.0078 81.755 22.3158 81.755C22.6052 81.755 22.8665 81.685 23.0998 81.545C23.3425 81.3957 23.5198 81.1717 23.6318 80.873L23.9958 81.853C23.8558 82.3757 23.5805 82.7724 23.1698 83.043C22.7685 83.3044 22.2365 83.435 21.5738 83.435ZM31.9663 83.309V75.721H34.7663L37.4123 80.677H36.3063L39.2043 75.721H41.7103L41.7243 83.309H39.3303V78.353L39.7363 78.633L37.3843 82.637H36.2503L33.8983 78.437L34.3603 78.311V83.309H31.9663ZM47.425 83.435C46.529 83.435 45.745 83.267 45.073 82.931C44.4104 82.5857 43.8924 82.119 43.519 81.531C43.155 80.9337 42.973 80.257 42.973 79.501C42.973 78.745 43.1504 78.073 43.505 77.485C43.869 76.8877 44.3684 76.4257 45.003 76.099C45.6377 75.763 46.3517 75.595 47.145 75.595C47.8917 75.595 48.573 75.749 49.189 76.057C49.805 76.3557 50.295 76.799 50.659 77.387C51.023 77.975 51.205 78.689 51.205 79.529C51.205 79.6224 51.2004 79.7297 51.191 79.851C51.1817 79.9724 51.1724 80.0844 51.163 80.187H45.157V78.787H49.749L48.741 79.179C48.7504 78.8337 48.685 78.535 48.545 78.283C48.4144 78.031 48.2277 77.835 47.985 77.695C47.7517 77.555 47.4764 77.485 47.159 77.485C46.8417 77.485 46.5617 77.555 46.319 77.695C46.0857 77.835 45.9037 78.0357 45.773 78.297C45.6424 78.549 45.577 78.8477 45.577 79.193V79.599C45.577 79.9724 45.6517 80.2944 45.801 80.565C45.9597 80.8357 46.1837 81.0457 46.473 81.195C46.7624 81.335 47.1077 81.405 47.509 81.405C47.8824 81.405 48.1997 81.3537 48.461 81.251C48.7317 81.139 48.9977 80.971 49.259 80.747L50.659 82.203C50.295 82.6044 49.847 82.9124 49.315 83.127C48.783 83.3324 48.153 83.435 47.425 83.435ZM56.4188 83.435C55.5788 83.435 54.8275 83.267 54.1648 82.931C53.5115 82.595 52.9982 82.133 52.6248 81.545C52.2515 80.9477 52.0648 80.2664 52.0648 79.501C52.0648 78.7357 52.2515 78.059 52.6248 77.471C52.9982 76.883 53.5115 76.4257 54.1648 76.099C54.8275 75.763 55.5788 75.595 56.4188 75.595C57.2775 75.595 58.0195 75.777 58.6448 76.141C59.2702 76.505 59.7135 77.0184 59.9748 77.681L57.9168 78.731C57.7395 78.3764 57.5202 78.1197 57.2588 77.961C56.9975 77.793 56.7128 77.709 56.4048 77.709C56.0968 77.709 55.8168 77.779 55.5648 77.919C55.3128 78.059 55.1122 78.2644 54.9628 78.535C54.8228 78.7964 54.7528 79.1184 54.7528 79.501C54.7528 79.893 54.8228 80.2244 54.9628 80.495C55.1122 80.7657 55.3128 80.971 55.5648 81.111C55.8168 81.251 56.0968 81.321 56.4048 81.321C56.7128 81.321 56.9975 81.2417 57.2588 81.083C57.5202 80.915 57.7395 80.6537 57.9168 80.299L59.9748 81.349C59.7135 82.0117 59.2702 82.525 58.6448 82.889C58.0195 83.253 57.2775 83.435 56.4188 83.435ZM62.8088 83.309V77.247L63.3828 77.835H60.3588V75.721H67.8908V77.835H64.8668L65.4548 77.247V83.309H62.8088ZM72.5266 83.435C71.6306 83.435 70.8466 83.267 70.1746 82.931C69.5119 82.5857 68.9939 82.119 68.6206 81.531C68.2566 80.9337 68.0746 80.257 68.0746 79.501C68.0746 78.745 68.2519 78.073 68.6066 77.485C68.9706 76.8877 69.4699 76.4257 70.1046 76.099C70.7393 75.763 71.4533 75.595 72.2466 75.595C72.9933 75.595 73.6746 75.749 74.2906 76.057C74.9066 76.3557 75.3966 76.799 75.7606 77.387C76.1246 77.975 76.3066 78.689 76.3066 79.529C76.3066 79.6224 76.3019 79.7297 76.2926 79.851C76.2833 79.9724 76.2739 80.0844 76.2646 80.187H70.2586V78.787H74.8506L73.8426 79.179C73.8519 78.8337 73.7866 78.535 73.6466 78.283C73.5159 78.031 73.3293 77.835 73.0866 77.695C72.8533 77.555 72.5779 77.485 72.2606 77.485C71.9433 77.485 71.6633 77.555 71.4206 77.695C71.1873 77.835 71.0053 78.0357 70.8746 78.297C70.7439 78.549 70.6786 78.8477 70.6786 79.193V79.599C70.6786 79.9724 70.7533 80.2944 70.9026 80.565C71.0613 80.8357 71.2853 81.0457 71.5746 81.195C71.8639 81.335 72.2093 81.405 72.6106 81.405C72.9839 81.405 73.3013 81.3537 73.5626 81.251C73.8333 81.139 74.0993 80.971 74.3606 80.747L75.7606 82.203C75.3966 82.6044 74.9486 82.9124 74.4166 83.127C73.8846 83.3324 73.2546 83.435 72.5266 83.435ZM87.1066 83.309L84.7966 79.767L86.9386 78.507L90.2426 83.309H87.1066ZM81.7866 83.309V75.721H84.4466V83.309H81.7866ZM83.6626 80.607V78.521H86.4066V80.607H83.6626ZM87.2046 79.809L84.7126 79.557L87.2606 75.721H90.0746L87.2046 79.809ZM94.6438 83.435C93.8131 83.435 93.0758 83.267 92.4318 82.931C91.7878 82.595 91.2791 82.133 90.9058 81.545C90.5418 80.9477 90.3598 80.2664 90.3598 79.501C90.3598 78.7357 90.5418 78.059 90.9058 77.471C91.2791 76.883 91.7878 76.4257 92.4318 76.099C93.0758 75.763 93.8131 75.595 94.6438 75.595C95.4744 75.595 96.2118 75.763 96.8558 76.099C97.5091 76.4257 98.0178 76.883 98.3818 77.471C98.7458 78.059 98.9278 78.7357 98.9278 79.501C98.9278 80.2664 98.7458 80.9477 98.3818 81.545C98.0178 82.133 97.5091 82.595 96.8558 82.931C96.2118 83.267 95.4744 83.435 94.6438 83.435ZM94.6438 81.321C94.9518 81.321 95.2224 81.251 95.4558 81.111C95.6984 80.971 95.8898 80.7657 96.0298 80.495C96.1698 80.215 96.2398 79.8837 96.2398 79.501C96.2398 79.1184 96.1698 78.7964 96.0298 78.535C95.8898 78.2644 95.6984 78.059 95.4558 77.919C95.2224 77.779 94.9518 77.709 94.6438 77.709C94.3451 77.709 94.0744 77.779 93.8318 77.919C93.5984 78.059 93.4071 78.2644 93.2578 78.535C93.1178 78.7964 93.0478 79.1184 93.0478 79.501C93.0478 79.8837 93.1178 80.215 93.2578 80.495C93.4071 80.7657 93.5984 80.971 93.8318 81.111C94.0744 81.251 94.3451 81.321 94.6438 81.321ZM100.175 83.309V75.721H106.531V77.835H102.247L102.821 77.261V83.309H100.175ZM112.248 82.147V77.835H110.218L110.19 78.563C110.171 78.927 110.148 79.2724 110.12 79.599C110.101 79.9164 110.055 80.2057 109.98 80.467C109.905 80.7284 109.798 80.9524 109.658 81.139C109.518 81.3164 109.331 81.447 109.098 81.531L106.494 81.181C106.746 81.181 106.951 81.111 107.11 80.971C107.278 80.8217 107.409 80.6164 107.502 80.355C107.595 80.0937 107.661 79.795 107.698 79.459C107.745 79.1137 107.777 78.7497 107.796 78.367L107.894 75.721H114.908V82.147H112.248ZM106.242 84.877V81.181H115.958V84.877H113.494V83.309H108.72V84.877H106.242ZM121.595 83.309V81.895L121.413 81.545V78.941C121.413 78.521 121.282 78.199 121.021 77.975C120.769 77.7417 120.363 77.625 119.803 77.625C119.439 77.625 119.07 77.6857 118.697 77.807C118.324 77.919 118.006 78.0777 117.745 78.283L116.849 76.477C117.278 76.197 117.792 75.9824 118.389 75.833C118.996 75.6744 119.598 75.595 120.195 75.595C121.427 75.595 122.379 75.8797 123.051 76.449C123.732 77.009 124.073 77.891 124.073 79.095V83.309H121.595ZM119.355 83.435C118.748 83.435 118.235 83.3324 117.815 83.127C117.395 82.9217 117.073 82.6417 116.849 82.287C116.634 81.9324 116.527 81.5357 116.527 81.097C116.527 80.6304 116.644 80.229 116.877 79.893C117.12 79.5477 117.488 79.2864 117.983 79.109C118.478 78.9224 119.117 78.829 119.901 78.829H121.693V80.215H120.265C119.836 80.215 119.532 80.285 119.355 80.425C119.187 80.565 119.103 80.7517 119.103 80.985C119.103 81.2184 119.192 81.405 119.369 81.545C119.546 81.685 119.789 81.755 120.097 81.755C120.386 81.755 120.648 81.685 120.881 81.545C121.124 81.3957 121.301 81.1717 121.413 80.873L121.777 81.853C121.637 82.3757 121.362 82.7724 120.951 83.043C120.55 83.3044 120.018 83.435 119.355 83.435ZM129.748 83.309V75.721H132.394V79.697L135.572 75.721H138.022V83.309H135.362V79.319L132.212 83.309H129.748ZM143.884 83.309V75.721H150.24V77.835H145.956L146.53 77.261V83.309H143.884ZM155.957 82.147V77.835H153.927L153.899 78.563C153.88 78.927 153.857 79.2724 153.829 79.599C153.81 79.9164 153.764 80.2057 153.689 80.467C153.614 80.7284 153.507 80.9524 153.367 81.139C153.227 81.3164 153.04 81.447 152.807 81.531L150.203 81.181C150.455 81.181 150.66 81.111 150.819 80.971C150.987 80.8217 151.118 80.6164 151.211 80.355C151.304 80.0937 151.37 79.795 151.407 79.459C151.454 79.1137 151.486 78.7497 151.505 78.367L151.603 75.721H158.617V82.147H155.957ZM149.951 84.877V81.181H159.667V84.877H157.203V83.309H152.429V84.877H149.951ZM164.716 83.435C163.82 83.435 163.036 83.267 162.364 82.931C161.701 82.5857 161.183 82.119 160.81 81.531C160.446 80.9337 160.264 80.257 160.264 79.501C160.264 78.745 160.441 78.073 160.796 77.485C161.16 76.8877 161.659 76.4257 162.294 76.099C162.929 75.763 163.643 75.595 164.436 75.595C165.183 75.595 165.864 75.749 166.48 76.057C167.096 76.3557 167.586 76.799 167.95 77.387C168.314 77.975 168.496 78.689 168.496 79.529C168.496 79.6224 168.491 79.7297 168.482 79.851C168.473 79.9724 168.463 80.0844 168.454 80.187H162.448V78.787H167.04L166.032 79.179C166.041 78.8337 165.976 78.535 165.836 78.283C165.705 78.031 165.519 77.835 165.276 77.695C165.043 77.555 164.767 77.485 164.45 77.485C164.133 77.485 163.853 77.555 163.61 77.695C163.377 77.835 163.195 78.0357 163.064 78.297C162.933 78.549 162.868 78.8477 162.868 79.193V79.599C162.868 79.9724 162.943 80.2944 163.092 80.565C163.251 80.8357 163.475 81.0457 163.764 81.195C164.053 81.335 164.399 81.405 164.8 81.405C165.173 81.405 165.491 81.3537 165.752 81.251C166.023 81.139 166.289 80.971 166.55 80.747L167.95 82.203C167.586 82.6044 167.138 82.9124 166.606 83.127C166.074 83.3324 165.444 83.435 164.716 83.435ZM63.5142 100.309V92.721H66.1602V95.535H68.8902V92.721H71.5502V100.309H68.8902V97.649H66.1602V100.309H63.5142ZM74.7442 103.151C74.3429 103.151 73.9369 103.086 73.5262 102.955C73.1249 102.834 72.7982 102.67 72.5462 102.465L73.4702 100.603C73.6289 100.743 73.8109 100.85 74.0162 100.925C74.2309 101.009 74.4409 101.051 74.6462 101.051C74.9356 101.051 75.1642 100.986 75.3322 100.855C75.5002 100.724 75.6449 100.519 75.7662 100.239L76.1162 99.357L76.3262 99.091L78.9022 92.721H81.4362L78.1602 100.617C77.8989 101.27 77.5956 101.779 77.2502 102.143C76.9142 102.516 76.5362 102.778 76.1162 102.927C75.7056 103.076 75.2482 103.151 74.7442 103.151ZM75.7802 100.631L72.4342 92.721H75.1642L77.6282 98.853L75.7802 100.631ZM91.1015 100.309L89.2955 96.767L91.4375 95.507L94.2515 100.309H91.1015ZM88.1615 97.607V95.521H90.8915V97.607H88.1615ZM91.7175 96.809L89.2115 96.557L91.2695 92.721H94.0835L91.7175 96.809ZM84.1575 100.309H81.0075L83.8075 95.507L85.9495 96.767L84.1575 100.309ZM88.9455 100.309H86.3275V92.721H88.9455V100.309ZM87.0975 97.607H84.3675V95.521H87.0975V97.607ZM83.5415 96.809L81.1755 92.721H83.9895L86.0195 96.557L83.5415 96.809ZM95.1782 100.309V92.721H97.8242V95.535H100.554V92.721H103.214V100.309H100.554V97.649H97.8242V100.309H95.1782ZM108.746 100.435C107.916 100.435 107.178 100.267 106.534 99.931C105.89 99.595 105.382 99.133 105.008 98.545C104.644 97.9477 104.462 97.2664 104.462 96.501C104.462 95.7357 104.644 95.059 105.008 94.471C105.382 93.883 105.89 93.4257 106.534 93.099C107.178 92.763 107.916 92.595 108.746 92.595C109.577 92.595 110.314 92.763 110.958 93.099C111.612 93.4257 112.12 93.883 112.484 94.471C112.848 95.059 113.03 95.7357 113.03 96.501C113.03 97.2664 112.848 97.9477 112.484 98.545C112.12 99.133 111.612 99.595 110.958 99.931C110.314 100.267 109.577 100.435 108.746 100.435ZM108.746 98.321C109.054 98.321 109.325 98.251 109.558 98.111C109.801 97.971 109.992 97.7657 110.132 97.495C110.272 97.215 110.342 96.8837 110.342 96.501C110.342 96.1184 110.272 95.7964 110.132 95.535C109.992 95.2644 109.801 95.059 109.558 94.919C109.325 94.779 109.054 94.709 108.746 94.709C108.448 94.709 108.177 94.779 107.934 94.919C107.701 95.059 107.51 95.2644 107.36 95.535C107.22 95.7964 107.15 96.1184 107.15 96.501C107.15 96.8837 107.22 97.215 107.36 97.495C107.51 97.7657 107.701 97.971 107.934 98.111C108.177 98.251 108.448 98.321 108.746 98.321Z" fill="white"/>
<path fill-rule="evenodd" clip-rule="evenodd" d="M68.7786 0.0649121C63.9555 0.857687 60.513 4.74751 60.513 9.40479C60.513 10.6411 60.6612 11.4851 61.1389 12.9695C61.7135 14.7555 62.1369 15.214 62.9155 14.894C63.4265 14.6838 63.5336 14.2533 63.252 13.5414C62.3874 11.3555 62.1386 9.42084 62.5115 7.78204C63.3026 4.30513 66.5094 1.76956 70.1157 1.76956C73.6766 1.76956 76.9082 4.26792 77.7204 7.6488C78.0169 8.88254 77.9065 10.8906 77.4689 12.2248C76.8125 14.2263 75.6738 16.1357 73.8183 18.3459C72.7301 19.6423 70.3429 21.971 70.1022 21.971C69.8669 21.971 66.8659 18.9388 65.9265 17.7516C65.461 17.1633 64.996 16.6168 64.8933 16.5371C64.4313 16.1788 63.6352 16.4975 63.4905 17.0987C63.4022 17.4654 63.7597 18.0166 65.1162 19.6058C66.2734 20.9615 69.0706 23.6142 69.6829 23.9366C70.1106 24.1618 70.1212 24.1617 70.5715 23.9294C71.1335 23.6398 74.6951 20.1948 75.607 19.0591C78.4041 15.575 79.7219 12.4749 79.7163 9.39148C79.7116 6.86851 78.9014 4.86934 77.1267 3.00151C75.7131 1.51378 74.0202 0.594657 71.9137 0.170932C71.0502 -0.00271743 69.5073 -0.0548955 68.7786 0.0649121ZM69.2809 5.21652C66.8186 5.71251 65.2339 8.2041 65.9179 10.5045C66.3264 11.8787 67.2266 12.8554 68.5754 13.3883C69.5669 13.7798 70.9504 13.7322 71.9628 13.2718C72.8447 12.8708 73.6915 12.0437 74.1062 11.1784C74.3824 10.602 74.4307 10.3423 74.4307 9.43166C74.4308 8.5016 74.3848 8.26436 74.0777 7.61422C73.2608 5.88438 71.1653 4.83689 69.2809 5.21652ZM70.8623 7.01423C73.0034 7.64144 73.3029 10.571 71.3312 11.6008C70.8764 11.8384 70.6487 11.8794 69.9793 11.8446C68.9263 11.7898 68.3082 11.3939 67.8518 10.4815C67.2157 9.21046 67.6956 7.8568 69.0139 7.20309C69.7345 6.84569 70.1444 6.80385 70.8623 7.01423ZM105.701 13.4174C102.346 13.9696 99.065 16.5957 97.8387 19.7098C96.1545 23.9865 97.3496 28.6579 101.458 33.8564C102.451 35.1136 106.484 39.0649 107.093 39.3786C107.522 39.5995 107.564 39.6011 107.973 39.4105C108.88 38.9873 113.678 34.1413 113.994 33.3284C114.218 32.7523 113.783 32.1876 113.123 32.1965C112.752 32.2015 112.635 32.302 111.545 33.5596C110.45 34.8223 107.776 37.4224 107.571 37.4224C107.323 37.4224 104.524 34.6819 103.394 33.3329C100.361 29.7108 98.9299 26.5835 98.9284 23.5756C98.9277 22.1232 99.1786 21.0736 99.8478 19.7281C100.908 17.5974 103.044 15.911 105.442 15.3113C106.576 15.0278 108.372 15.0032 109.469 15.2562C112.441 15.9414 114.837 18.0727 115.773 20.865C116.096 21.83 116.123 22.0462 116.116 23.635C116.11 25.1642 116.072 25.4779 115.777 26.4183C115.594 27.0013 115.169 28.0563 114.834 28.7629C114.27 29.948 114.236 30.0727 114.383 30.3737C114.605 30.8263 115.026 31.0137 115.476 30.8603C116.097 30.6488 117.367 27.873 117.814 25.7497C118.059 24.5872 118.062 22.5771 117.82 21.4321C116.986 17.4812 113.726 14.2935 109.685 13.4774C108.732 13.2849 106.693 13.2541 105.701 13.4174ZM106.588 19.0106C105.3 19.2574 103.903 20.3265 103.319 21.513C102.714 22.7424 102.733 24.3765 103.368 25.5826C104.837 28.3735 108.602 28.9626 110.886 26.7588C112.709 24.9999 112.709 22.0325 110.886 20.2735C109.73 19.1581 108.185 18.7043 106.588 19.0106ZM108.451 20.8081C109.496 21.1099 110.471 22.4174 110.471 23.5162C110.471 25.0866 108.921 26.4909 107.361 26.3336C105.771 26.173 104.705 25.0423 104.706 23.5162C104.707 21.57 106.529 20.2527 108.451 20.8081ZM71.3865 23.9268C70.756 24.5432 71.0835 25.1363 72.3152 25.6089C73.1109 25.9141 73.2047 25.9265 73.4996 25.7646C73.9187 25.5345 74.0946 25.0501 73.906 24.6452C73.75 24.3105 72.4517 23.6353 71.9639 23.6352C71.8104 23.635 71.5506 23.7664 71.3865 23.9268ZM75.8412 25.8209C75.646 26.0241 75.5794 26.2177 75.6072 26.5006C75.6511 26.9439 76.0633 27.2794 76.9883 27.6248C77.67 27.8794 78.1797 27.715 78.3708 27.1789C78.572 26.6147 78.2902 26.2266 77.4074 25.8522C76.4898 25.4631 76.1907 25.4571 75.8412 25.8209ZM80.4106 27.5705C80.0741 27.7619 79.9256 28.2554 80.0885 28.6401C80.2297 28.9733 81.2099 29.5189 81.9151 29.6568C82.6428 29.7992 83.1936 28.7048 82.6405 28.2153C82.3127 27.9253 81.2098 27.4376 80.8915 27.442C80.7477 27.444 80.5313 27.5018 80.4106 27.5705ZM84.7232 29.6152C84.5687 29.776 84.4589 30.044 84.4589 30.2604C84.4589 30.7141 84.8142 31.0135 85.7662 31.3618C86.5672 31.6549 87.0242 31.5483 87.2496 31.0158C87.4898 30.4489 87.2436 30.0874 86.3458 29.6894C85.396 29.2683 85.0709 29.2534 84.7232 29.6152ZM89.2839 31.3739C88.9493 31.5642 88.7988 32.0587 88.9599 32.4388C89.0573 32.6685 89.3296 32.8653 89.9171 33.13C90.8873 33.5673 91.011 33.5774 91.4318 33.2538C91.6605 33.0779 91.7521 32.8969 91.7521 32.6208C91.7521 32.1539 91.4405 31.8458 90.6123 31.4938C89.9589 31.2162 89.6157 31.1852 89.2839 31.3739ZM93.5965 33.4186C93.0105 34.0287 93.3423 34.6434 94.5027 35.0977C95.4509 35.4689 95.8821 35.3881 96.1345 34.792C96.3671 34.2431 96.1371 33.907 95.2471 33.4954C94.3317 33.0719 93.9469 33.054 93.5965 33.4186ZM64.7674 33.4402C63.1482 33.7589 61.1728 34.6673 60.2671 35.5097C59.6094 36.1214 59.6184 36.677 60.2916 37.0174C60.6966 37.2221 60.7496 37.2024 62.2984 36.2705C63.6553 35.4539 64.8051 35.1335 66.6009 35.0713C68.4578 35.0071 69.6223 35.2466 71.2097 36.0194C72.0485 36.4278 72.4611 36.7357 73.4028 37.6559C74.7098 38.9329 75.3658 40.002 75.8525 41.6486C76.2546 43.0088 76.2275 45.1015 75.787 46.7068C75.2924 48.5091 74.4023 50.3448 73.1223 52.2017C71.9955 53.8367 69.6619 56.4362 67.9842 57.9257L66.9618 58.8333L65.2428 57.1907C60.2975 52.4649 57.8389 48.0895 57.8389 44.0143C57.8389 42.4182 58.0786 41.4288 58.86 39.7996C59.2331 39.0219 59.2518 38.7289 58.9518 38.3666C58.6713 38.0279 58.0662 38.0072 57.7002 38.3237C57.3033 38.667 56.6358 40.1678 56.3091 41.4511C55.3291 45.3006 56.6947 49.8463 60.1872 54.3595C61.4084 55.9378 63.2199 57.865 64.7748 59.2398C66.3515 60.6341 66.625 60.8264 67.0402 60.833C67.4034 60.8387 68.529 59.9155 70.4272 58.0551C73.2293 55.3088 75.1221 52.8148 76.3725 50.2215C77.5383 47.804 77.9194 46.2876 77.9312 44.019C77.9399 42.3225 77.7897 41.5191 77.1696 39.9467C75.9049 36.7399 72.7658 34.1807 69.1881 33.4395C68.1644 33.2275 65.8469 33.2278 64.7674 33.4402ZM98.066 35.2645C97.7287 35.5316 97.6958 36.1299 98.0005 36.4591C98.2134 36.6892 99.0866 37.1012 99.6582 37.2413C100.124 37.3553 100.625 36.9249 100.625 36.412C100.625 35.9213 100.393 35.6837 99.5612 35.324C98.7844 34.9881 98.4327 34.9741 98.066 35.2645ZM102.47 37.222C101.879 37.8368 102.207 38.4301 103.394 38.8976C104.201 39.2153 104.253 39.2211 104.617 39.0367C105.442 38.6199 105.222 37.7999 104.146 37.2819C103.306 36.8775 102.818 36.86 102.47 37.222ZM65.5315 39.3723C64.3734 39.7385 63.1216 40.7673 62.6098 41.7735C61.9392 43.0921 61.9149 44.7039 62.546 46.0128C64.0167 49.0635 68.1941 49.7288 70.532 47.2848C72.8328 44.8796 72.093 41.053 69.0552 39.6462C68.3431 39.3164 68.0836 39.2611 67.1377 39.2375C66.47 39.221 65.8441 39.2734 65.5315 39.3723ZM104.943 40.4269C104.055 40.8953 103.797 41.2733 104.015 41.7884C104.191 42.2031 104.611 42.4287 105.019 42.328C105.5 42.2095 106.579 41.5705 106.714 41.3248C106.997 40.8076 106.516 40.0325 105.916 40.0406C105.781 40.0425 105.343 40.2163 104.943 40.4269ZM68.114 41.1603C68.7999 41.4406 69.3261 41.9001 69.6712 42.5201C70.3643 43.7652 70.1706 45.1283 69.1607 46.116C67.5813 47.6603 64.9639 47.1316 64.0926 45.0925C63.8847 44.6057 63.8646 43.6122 64.0496 42.9606C64.2144 42.3802 65.3032 41.2862 65.8763 41.125C66.5004 40.9495 67.642 40.9676 68.114 41.1603ZM100.581 42.6802C99.815 43.0863 99.5773 43.4104 99.6986 43.883C99.8905 44.631 100.574 44.7511 101.543 44.2074C102.31 43.7771 102.489 43.5681 102.489 43.1027C102.489 42.6631 102.088 42.294 101.615 42.2988C101.438 42.3004 100.973 42.472 100.581 42.6802ZM96.3104 44.9141C95.5967 45.3232 95.3987 45.5551 95.3987 45.9821C95.3987 46.3571 95.8546 46.8121 96.2304 46.8121C96.6144 46.8121 97.9184 46.1434 98.0682 45.8696C98.2865 45.4708 98.219 44.9407 97.9242 44.7389C97.5244 44.465 96.9933 44.5227 96.3104 44.9141ZM92.3598 47.0003C91.4554 47.4102 91.1443 47.7149 91.1443 48.1911C91.1443 48.5998 91.5921 49.0704 91.9812 49.0704C92.2126 49.0704 93.3477 48.4989 93.6968 48.2067C94.1597 47.8191 93.9005 46.9404 93.2715 46.7649C93.1339 46.7266 92.7382 46.8287 92.3598 47.0003ZM87.8426 49.3414C86.9302 49.8033 86.664 50.1925 86.9137 50.7004C87.0009 50.8777 87.2129 51.1 87.3849 51.1942C87.6697 51.3503 87.7585 51.3382 88.3854 51.0575C89.6424 50.4949 90.0017 49.844 89.3873 49.2433C88.9954 48.86 88.7648 48.8746 87.8426 49.3414ZM83.6565 51.5125C82.9796 51.8565 82.5141 52.3107 82.5141 52.6267C82.5141 52.745 82.6275 52.9827 82.7661 53.1549C83.1046 53.5758 83.5774 53.5614 84.4567 53.1031C85.442 52.5895 85.6769 52.0334 85.1329 51.5016C84.7538 51.1308 84.4023 51.1334 83.6565 51.5125ZM79.2061 53.8301C78.227 54.3243 78.0183 54.8 78.5117 55.4132C78.6616 55.5997 78.8844 55.7264 79.0621 55.7264C79.4135 55.7264 80.6935 55.1182 80.931 54.8383C81.193 54.5297 81.1354 53.9377 80.8191 53.6873C80.4358 53.3837 80.0171 53.4208 79.2061 53.8301ZM75.2209 55.9145C74.3164 56.3245 74.0054 56.6292 74.0054 57.1053C74.0054 57.5146 74.4544 57.9858 74.8423 57.9835C75.1412 57.9817 76.2615 57.4425 76.5475 57.1629C76.8632 56.8542 76.8853 56.192 76.5884 55.9371C76.2044 55.6074 75.9091 55.6025 75.2209 55.9145ZM70.771 58.2334C69.9172 58.6719 69.751 58.8563 69.751 59.3656C69.751 59.6396 69.8432 59.8211 70.0713 59.9965C70.2475 60.132 70.4526 60.2424 70.5272 60.2417C70.772 60.2397 71.9939 59.6383 72.2733 59.3824C72.6632 59.0251 72.6413 58.4312 72.2265 58.1122C71.8003 57.7842 71.6158 57.7997 70.771 58.2334Z" fill="white"/>
</svg>
