<svg width="122" height="21" viewBox="0 0 122 21" fill="none" xmlns="http://www.w3.org/2000/svg">
<path d="M121.914 5.40672C122.138 4.90217 121.911 4.31107 121.407 4.08645L113.185 0.425994C112.68 0.20137 112.089 0.428289 111.864 0.932831C111.64 1.43737 111.867 2.02848 112.371 2.2531L119.68 5.50684L116.426 12.8153C116.201 13.3198 116.428 13.9109 116.933 14.1355C117.437 14.3602 118.028 14.1332 118.253 13.6287L121.914 5.40672ZM0.633475 5.93041C25.4245 15.6966 43.3831 20.4277 61.2947 20.3274C79.2022 20.2272 96.9651 15.2979 121.358 5.93357L120.642 4.06643C96.3059 13.4086 78.8188 18.2293 61.2835 18.3275C43.7524 18.4256 26.0755 13.8034 1.36652 4.06959L0.633475 5.93041Z" fill="white"/>
</svg>
